<svg xmlns="http://www.w3.org/2000/svg" xmlns:xlink="http://www.w3.org/1999/xlink" width="500" zoomAndPan="magnify" viewBox="0 0 375 374.999991" height="500" preserveAspectRatio="xMidYMid meet" version="1.0"><defs><clipPath id="ff291e2719"><path d="M 171.09375 171 L 204 171 L 204 204 L 171.09375 204 Z M 171.09375 171 " clip-rule="nonzero"/></clipPath><clipPath id="22224db792"><path d="M 171.09375 0 L 204 0 L 204 32 L 171.09375 32 Z M 171.09375 0 " clip-rule="nonzero"/></clipPath><clipPath id="26d2ecc3f5"><path d="M 171.09375 343 L 204 343 L 204 375 L 171.09375 375 Z M 171.09375 343 " clip-rule="nonzero"/></clipPath></defs><g clip-path="url(#ff291e2719)"><path fill="#ffc500" d="M 196.769531 203.097656 L 186.160156 192.953125 C 186.046875 192.847656 185.90625 192.792969 185.757812 192.804688 L 171.96875 193.917969 C 171.417969 193.964844 171.15625 193.183594 171.597656 192.824219 L 178.476562 187.21875 C 178.71875 187.019531 178.765625 186.640625 178.585938 186.367188 L 172.382812 177.179688 C 172.042969 176.671875 172.527344 176.003906 173.046875 176.265625 L 184.257812 181.929688 C 184.515625 182.058594 184.824219 181.949219 184.960938 181.671875 L 189.75 172.0625 C 190.003906 171.550781 190.699219 171.699219 190.769531 172.273438 L 192.089844 182.605469 C 192.132812 182.933594 192.40625 183.167969 192.703125 183.125 L 203.265625 181.699219 C 203.820312 181.625 204.113281 182.40625 203.671875 182.78125 L 194.328125 190.730469 C 194.144531 190.886719 194.070312 191.164062 194.148438 191.410156 L 197.644531 202.441406 C 197.828125 203.027344 197.191406 203.503906 196.769531 203.097656 " fill-opacity="1" fill-rule="nonzero"/></g><path fill="#5c21b5" d="M 199.039062 184.773438 L 189.554688 188.332031 L 195.117188 199.371094 L 186.785156 188.882812 L 176.476562 192.046875 L 184.363281 187.152344 L 176.847656 181.050781 L 186.144531 185.691406 L 189.03125 177.90625 L 188.417969 186.136719 L 199.039062 184.773438 " fill-opacity="1" fill-rule="nonzero"/><g clip-path="url(#22224db792)"><path fill="#ffc500" d="M 196.769531 31.574219 L 186.160156 21.429688 C 186.046875 21.324219 185.90625 21.269531 185.757812 21.28125 L 171.96875 22.394531 C 171.417969 22.4375 171.15625 21.660156 171.597656 21.300781 L 178.476562 15.691406 C 178.71875 15.492188 178.765625 15.113281 178.585938 14.84375 L 172.382812 5.652344 C 172.042969 5.148438 172.527344 4.480469 173.046875 4.738281 L 184.257812 10.40625 C 184.515625 10.535156 184.824219 10.421875 184.960938 10.148438 L 189.75 0.535156 C 190.003906 0.0273438 190.699219 0.171875 190.769531 0.75 L 192.089844 11.082031 C 192.132812 11.410156 192.40625 11.640625 192.703125 11.601562 L 203.265625 10.171875 C 203.820312 10.097656 204.113281 10.882812 203.671875 11.257812 L 194.328125 19.207031 C 194.144531 19.363281 194.070312 19.636719 194.148438 19.882812 L 197.644531 30.917969 C 197.828125 31.503906 197.191406 31.980469 196.769531 31.574219 " fill-opacity="1" fill-rule="nonzero"/></g><path fill="#5c21b5" d="M 199.039062 13.25 L 189.554688 16.804688 L 195.117188 27.84375 L 186.785156 17.359375 L 176.476562 20.523438 L 184.363281 15.628906 L 176.847656 9.527344 L 186.144531 14.164062 L 189.03125 6.382812 L 188.417969 14.609375 L 199.039062 13.25 " fill-opacity="1" fill-rule="nonzero"/><path fill="#ffc500" d="M 200.414062 117.222656 L 189.882812 117.53125 C 189.773438 117.535156 189.671875 117.578125 189.605469 117.660156 L 183.269531 125.226562 C 183.019531 125.527344 182.488281 125.273438 182.523438 124.863281 L 183.085938 118.5625 C 183.105469 118.339844 182.933594 118.125 182.703125 118.078125 L 174.871094 116.628906 C 174.445312 116.550781 174.339844 115.964844 174.734375 115.835938 L 183.265625 112.976562 C 183.460938 112.910156 183.558594 112.699219 183.484375 112.488281 L 180.945312 105.238281 C 180.808594 104.855469 181.234375 104.574219 181.566406 104.828125 L 187.535156 109.332031 C 187.726562 109.476562 187.980469 109.453125 188.109375 109.285156 L 192.667969 103.199219 C 192.90625 102.878906 193.457031 103.125 193.429688 103.535156 L 192.835938 112.265625 C 192.824219 112.441406 192.925781 112.613281 193.09375 112.699219 L 200.515625 116.449219 C 200.90625 116.648438 200.835938 117.210938 200.414062 117.222656 " fill-opacity="1" fill-rule="nonzero"/><path fill="#5c21b5" d="M 197.667969 116.195312 L 188.105469 115.171875 L 184.566406 122 L 186.003906 115.535156 L 179.101562 116.300781 L 186.144531 113.898438 L 183.585938 108.535156 L 187.511719 112.96875 L 192.132812 106.886719 L 189.207031 113.488281 L 197.667969 116.195312 " fill-opacity="1" fill-rule="nonzero"/><path fill="#ffc500" d="M 180.367188 151.433594 C 179.507812 151.484375 178.574219 151.609375 177.78125 151.941406 C 176.027344 152.6875 177.394531 154.359375 178.320312 155.304688 C 180.085938 157.113281 182.09375 158.691406 184.269531 159.984375 C 186.652344 161.398438 186.046875 156.707031 185.820312 155.589844 L 180.367188 151.433594 " fill-opacity="1" fill-rule="nonzero"/><path fill="#ffc500" d="M 181.457031 157.058594 C 181.511719 157.160156 182.292969 157.171875 182.398438 157.183594 C 183.21875 157.277344 184.042969 157.355469 184.871094 157.410156 C 187.261719 157.574219 189.6875 157.59375 192.074219 157.308594 C 194.253906 157.046875 196.730469 156.546875 198.398438 155.015625 C 198.933594 154.523438 199.632812 153.78125 199.585938 153.003906 C 199.527344 152.019531 198.910156 151.332031 198.007812 151.234375 C 198.007812 151.234375 200.753906 149.230469 197.5625 147.628906 C 197.5625 147.628906 199.503906 145.574219 196.664062 144.359375 C 196.664062 144.359375 197.011719 141.34375 193.808594 141.394531 C 193.808594 141.394531 193.4375 138.226562 190.351562 139.226562 C 190.351562 139.226562 189.304688 136.621094 186.679688 138.128906 C 186.679688 138.128906 184.597656 135.277344 182.484375 138.117188 C 182.484375 138.117188 180.367188 135.90625 178.679688 138.355469 C 178.765625 138.226562 177.738281 137.894531 177.664062 137.890625 C 177.273438 137.855469 176.898438 137.984375 176.574219 138.195312 C 175.222656 139.082031 175.734375 141.53125 175.957031 142.898438 C 176.363281 145.429688 177.171875 147.894531 178.140625 150.265625 C 179.09375 152.597656 180.222656 154.863281 181.457031 157.058594 " fill-opacity="1" fill-rule="nonzero"/><path fill="#5c21b5" d="M 197.984375 153.308594 C 197.984375 153.332031 197.980469 153.355469 197.980469 153.378906 C 197.601562 155.453125 182.039062 156.464844 182.039062 156.464844 C 182.039062 156.464844 197.984375 151.421875 197.984375 153.308594 " fill-opacity="1" fill-rule="nonzero"/><path fill="#5c21b5" d="M 198.433594 149.285156 C 198.433594 149.285156 198.433594 149.289062 198.433594 149.289062 C 198.414062 150.609375 183.195312 155.574219 183.050781 155.621094 C 183.050781 155.621094 198.433594 146.925781 198.433594 149.285156 " fill-opacity="1" fill-rule="nonzero"/><path fill="#5c21b5" d="M 197.46875 145.800781 C 197.46875 147.542969 183.683594 154.359375 183.683594 154.359375 C 183.683594 154.359375 196.285156 144.261719 197.40625 145.625 C 197.449219 145.675781 197.46875 145.734375 197.46875 145.800781 " fill-opacity="1" fill-rule="nonzero"/><path fill="#5c21b5" d="M 181.625 155.976562 C 181.625 155.976562 177.015625 144.0625 177.015625 140.074219 C 177.015625 139.476562 177.121094 139.058594 177.359375 138.882812 C 178.585938 137.976562 181.625 155.976562 181.625 155.976562 " fill-opacity="1" fill-rule="nonzero"/><path fill="#5c21b5" d="M 182.074219 154.222656 C 182.074219 154.605469 182.070312 154.816406 182.070312 154.816406 C 182.070312 154.816406 180.238281 144.355469 180.238281 139.992188 C 180.238281 138.863281 180.363281 138.148438 180.667969 138.117188 C 181.996094 138 182.074219 151.238281 182.074219 154.222656 " fill-opacity="1" fill-rule="nonzero"/><path fill="#5c21b5" d="M 185.007812 139.277344 C 185.007812 143.417969 182.460938 154.476562 182.460938 154.476562 C 182.460938 154.476562 182.871094 137.773438 184.53125 137.734375 C 184.871094 137.726562 185.007812 138.3125 185.007812 139.277344 " fill-opacity="1" fill-rule="nonzero"/><path fill="#5c21b5" d="M 188.765625 139.171875 C 188.765625 141.625 183 153.582031 183 153.582031 C 183 153.582031 187.011719 137.9375 188.617188 138.753906 C 188.71875 138.804688 188.765625 138.949219 188.765625 139.171875 " fill-opacity="1" fill-rule="nonzero"/><path fill="#5c21b5" d="M 192.335938 140.785156 C 192.335938 143.082031 184.207031 152.972656 184.207031 152.972656 C 184.207031 152.972656 190.6875 139.316406 192.175781 140.390625 C 192.285156 140.46875 192.335938 140.605469 192.335938 140.785156 " fill-opacity="1" fill-rule="nonzero"/><path fill="#5c21b5" d="M 195.390625 143 C 195.390625 144.6875 186.308594 151.535156 186.308594 151.535156 C 186.308594 151.535156 194.328125 141.523438 195.328125 142.789062 C 195.371094 142.847656 195.390625 142.917969 195.390625 143 " fill-opacity="1" fill-rule="nonzero"/><path fill="#ffc500" d="M 186.917969 56.585938 C 186.527344 57.09375 186.140625 57.679688 185.945312 58.292969 C 185.515625 59.648438 187.140625 59.695312 188.132812 59.632812 C 190.03125 59.515625 191.910156 59.152344 193.710938 58.554688 C 195.683594 57.898438 192.703125 55.949219 191.957031 55.53125 L 186.917969 56.585938 " fill-opacity="1" fill-rule="nonzero"/><path fill="#ffc500" d="M 190.664062 58.714844 C 190.75 58.734375 191.136719 58.296875 191.195312 58.246094 C 191.652344 57.828125 192.097656 57.394531 192.53125 56.957031 C 193.792969 55.683594 194.992188 54.328125 195.992188 52.835938 C 196.90625 51.480469 197.832031 49.835938 197.773438 48.144531 C 197.753906 47.601562 197.667969 46.84375 197.203125 46.492188 C 196.609375 46.042969 195.914062 46.058594 195.421875 46.519531 C 195.421875 46.519531 195.613281 43.988281 193.136719 45.011719 C 193.136719 45.011719 192.914062 42.910156 190.832031 43.921875 C 190.832031 43.921875 189.277344 42.25 187.742188 44.089844 C 187.742188 44.089844 185.75 42.746094 184.816406 44.980469 C 184.816406 44.980469 182.8125 44.300781 182.394531 46.519531 C 182.394531 46.519531 179.746094 46.304688 180.34375 48.882812 C 180.34375 48.882812 178.039062 49.003906 178.617188 51.148438 C 178.585938 51.039062 177.894531 51.460938 177.855469 51.496094 C 177.644531 51.703125 177.539062 51.976562 177.5 52.265625 C 177.347656 53.460938 178.996094 54.363281 179.886719 54.910156 C 181.53125 55.914062 183.335938 56.660156 185.164062 57.269531 C 186.960938 57.875 188.804688 58.339844 190.664062 58.714844 " fill-opacity="1" fill-rule="nonzero"/><path fill="#5c21b5" d="M 196.726562 47.929688 C 196.726562 50 190.609375 58.097656 190.609375 58.097656 C 190.609375 58.097656 195.628906 46.355469 196.628906 47.582031 C 196.695312 47.664062 196.726562 47.78125 196.726562 47.929688 " fill-opacity="1" fill-rule="nonzero"/><path fill="#5c21b5" d="M 194.597656 45.640625 C 194.597656 47.574219 190.664062 57.015625 190.621094 57.113281 C 190.621094 57.113281 193.171875 44.148438 194.515625 45.328125 C 194.570312 45.378906 194.597656 45.488281 194.597656 45.640625 " fill-opacity="1" fill-rule="nonzero"/><path fill="#5c21b5" d="M 192.261719 45.164062 C 192.261719 48.089844 190.207031 56.140625 190.207031 56.140625 C 190.207031 56.140625 190.59375 44.085938 191.917969 44.121094 C 192.164062 44.125 192.261719 44.519531 192.261719 45.164062 " fill-opacity="1" fill-rule="nonzero"/><path fill="#5c21b5" d="M 190.128906 58.09375 C 190.128906 58.09375 178.273438 53.886719 178.273438 52.183594 C 178.273438 52.171875 178.273438 52.164062 178.277344 52.15625 C 178.359375 51.015625 190.128906 58.09375 190.128906 58.09375 " fill-opacity="1" fill-rule="nonzero"/><path fill="#5c21b5" d="M 189.683594 57.273438 C 189.683594 57.273438 179.425781 51.191406 179.425781 50.003906 C 179.425781 49.96875 179.433594 49.9375 179.457031 49.910156 C 180.109375 49 189.683594 57.273438 189.683594 57.273438 " fill-opacity="1" fill-rule="nonzero"/><path fill="#5c21b5" d="M 189.679688 56.886719 C 189.679688 56.886719 181.074219 49.164062 181.074219 47.691406 C 181.074219 47.628906 181.089844 47.578125 181.121094 47.539062 C 181.972656 46.503906 189.679688 56.886719 189.679688 56.886719 " fill-opacity="1" fill-rule="nonzero"/><path fill="#5c21b5" d="M 189.429688 56.148438 C 189.429688 56.148438 183.550781 47.804688 183.550781 46.035156 C 183.550781 45.875 183.597656 45.769531 183.699219 45.730469 C 184.660156 45.335938 189.429688 56.148438 189.429688 56.148438 " fill-opacity="1" fill-rule="nonzero"/><path fill="#5c21b5" d="M 189.671875 55.164062 C 189.671875 55.164062 186.128906 47.28125 186.128906 45.078125 C 186.128906 44.757812 186.203125 44.558594 186.371094 44.519531 C 187.714844 44.203125 189.671875 55.164062 189.671875 55.164062 " fill-opacity="1" fill-rule="nonzero"/><path fill="#5c21b5" d="M 190.019531 48.671875 C 190.019531 50.988281 189.875 53.277344 189.875 53.277344 C 189.875 53.277344 188.863281 47.996094 188.863281 45.363281 C 188.863281 44.480469 188.980469 43.898438 189.28125 43.910156 C 189.871094 43.9375 190.019531 46.316406 190.019531 48.671875 " fill-opacity="1" fill-rule="nonzero"/><path fill="#ffc500" d="M 191.703125 84.378906 C 191.773438 83.453125 191.140625 82.519531 190.257812 82.230469 C 189.367188 81.941406 188.304688 82.328125 187.8125 83.117188 C 187.15625 84.167969 187.617188 85.660156 188.617188 86.390625 C 189.613281 87.125 190.992188 87.195312 192.179688 86.84375 C 192.957031 86.609375 193.707031 86.191406 194.128906 85.503906 C 194.585938 84.757812 194.574219 83.808594 194.339844 82.964844 C 193.886719 81.292969 192.570312 79.859375 190.914062 79.308594 C 189.261719 78.757812 187.3125 79.132812 186.023438 80.296875 C 184.851562 81.351562 184.273438 82.972656 184.355469 84.535156 C 184.433594 86.105469 185.140625 87.605469 186.179688 88.785156 C 187.429688 90.195312 189.175781 91.171875 191.046875 91.429688 C 192.917969 91.683594 194.898438 91.191406 196.378906 90.03125 C 197.636719 89.050781 198.515625 87.636719 198.976562 86.113281 C 199.433594 84.59375 199.496094 82.972656 199.304688 81.398438 C 198.964844 78.578125 197.761719 75.792969 195.617188 73.917969 C 193.085938 71.703125 189.460938 70.976562 186.128906 71.496094 C 181.808594 72.167969 177.730469 75.042969 176.296875 79.148438 C 175.71875 80.808594 175.613281 82.75 176.558594 84.238281 C 177.355469 85.492188 178.792969 86.234375 180.261719 86.492188 C 181.730469 86.75 183.242188 86.570312 184.710938 86.324219 L 191.703125 84.378906 " fill-opacity="1" fill-rule="nonzero"/><path fill="#ffc500" d="M 199.539062 82.902344 C 199.539062 83.449219 199.507812 84 199.433594 84.546875 C 199.359375 85.089844 199.238281 85.628906 199.078125 86.152344 C 198.910156 86.675781 198.703125 87.1875 198.441406 87.671875 C 198.183594 88.160156 197.871094 88.617188 197.523438 89.039062 C 197.164062 89.457031 196.765625 89.847656 196.320312 90.171875 C 195.875 90.5 195.390625 90.769531 194.886719 90.984375 C 194.375 91.195312 193.839844 91.347656 193.300781 91.441406 C 192.214844 91.636719 191.085938 91.566406 190.03125 91.273438 C 188.96875 90.972656 187.980469 90.453125 187.121094 89.761719 C 186.699219 89.417969 186.304688 89.03125 185.949219 88.609375 C 185.605469 88.1875 185.292969 87.730469 185.039062 87.242188 C 184.886719 86.957031 184.753906 86.65625 184.644531 86.355469 C 183.59375 86.542969 182.527344 86.691406 181.449219 86.667969 C 181.175781 86.660156 180.902344 86.644531 180.628906 86.609375 C 180.355469 86.578125 180.078125 86.539062 179.8125 86.472656 C 179.675781 86.445312 179.542969 86.402344 179.410156 86.367188 C 179.28125 86.324219 179.148438 86.285156 179.015625 86.238281 C 178.886719 86.191406 178.761719 86.132812 178.632812 86.082031 C 178.507812 86.019531 178.382812 85.964844 178.261719 85.898438 C 178.015625 85.769531 177.78125 85.617188 177.558594 85.453125 C 177.335938 85.289062 177.128906 85.097656 176.9375 84.898438 C 176.554688 84.488281 176.257812 84.007812 176.058594 83.484375 L 176.019531 83.386719 L 175.988281 83.289062 L 175.925781 83.089844 L 175.875 82.886719 C 175.855469 82.820312 175.839844 82.75 175.832031 82.679688 C 175.804688 82.546875 175.777344 82.410156 175.765625 82.273438 C 175.757812 82.203125 175.746094 82.132812 175.746094 82.0625 L 175.730469 81.855469 C 175.726562 81.757812 175.722656 81.664062 175.722656 81.566406 C 175.722656 81.109375 175.777344 80.652344 175.867188 80.207031 C 175.914062 79.933594 175.988281 79.664062 176.066406 79.402344 C 176.148438 79.136719 176.238281 78.878906 176.34375 78.621094 C 176.546875 78.109375 176.796875 77.613281 177.082031 77.140625 C 177.648438 76.195312 178.367188 75.339844 179.183594 74.597656 C 180 73.851562 180.917969 73.21875 181.894531 72.707031 C 182.875 72.191406 183.917969 71.796875 184.996094 71.53125 C 185.53125 71.398438 186.078125 71.304688 186.628906 71.238281 C 186.765625 71.214844 186.90625 71.214844 187.042969 71.199219 C 187.179688 71.191406 187.320312 71.171875 187.457031 71.167969 C 187.734375 71.160156 188.011719 71.144531 188.289062 71.152344 C 188.425781 71.15625 188.5625 71.152344 188.703125 71.15625 L 189.117188 71.179688 L 189.324219 71.195312 L 189.53125 71.214844 L 189.945312 71.261719 L 190.355469 71.328125 L 190.5625 71.363281 C 190.628906 71.371094 190.695312 71.390625 190.765625 71.402344 L 191.171875 71.492188 C 191.308594 71.523438 191.441406 71.5625 191.570312 71.597656 C 192.644531 71.882812 193.671875 72.339844 194.605469 72.941406 C 194.722656 73.011719 194.835938 73.09375 194.949219 73.175781 C 195.058594 73.257812 195.175781 73.332031 195.285156 73.421875 C 195.496094 73.597656 195.722656 73.765625 195.917969 73.960938 C 196.125 74.144531 196.3125 74.351562 196.503906 74.550781 C 196.6875 74.761719 196.871094 74.964844 197.035156 75.1875 L 197.160156 75.351562 L 197.28125 75.519531 C 197.359375 75.636719 197.441406 75.746094 197.515625 75.863281 L 197.734375 76.214844 C 197.8125 76.332031 197.871094 76.453125 197.941406 76.574219 C 198.207031 77.058594 198.445312 77.554688 198.636719 78.070312 C 199.03125 79.097656 199.292969 80.171875 199.429688 81.261719 C 199.5 81.804688 199.53125 82.355469 199.539062 82.902344 M 184.714844 86.320312 C 185.035156 87.222656 185.542969 88.066406 186.179688 88.785156 C 187.429688 90.195312 189.175781 91.171875 191.046875 91.429688 C 192.917969 91.683594 194.898438 91.191406 196.378906 90.03125 C 197.636719 89.050781 198.515625 87.636719 198.976562 86.113281 C 199.277344 85.117188 199.40625 84.078125 199.40625 83.035156 C 199.40625 82.488281 199.371094 81.941406 199.304688 81.398438 C 198.964844 78.578125 197.761719 75.792969 195.617188 73.917969 C 193.085938 71.703125 189.460938 70.976562 186.128906 71.496094 C 181.808594 72.167969 177.730469 75.042969 176.296875 79.148438 C 176.023438 79.9375 175.855469 80.789062 175.855469 81.625 C 175.855469 82.550781 176.058594 83.457031 176.558594 84.238281 C 177.355469 85.492188 178.792969 86.234375 180.261719 86.492188 C 181.730469 86.75 183.242188 86.570312 184.710938 86.324219 L 184.714844 86.320312 " fill-opacity="1" fill-rule="nonzero"/><path fill="#5c21b5" d="M 199.40625 83.035156 C 199.40625 84.078125 199.277344 85.117188 198.976562 86.113281 C 198.515625 87.636719 197.636719 89.050781 196.378906 90.03125 C 194.898438 91.191406 192.917969 91.683594 191.046875 91.429688 C 189.175781 91.171875 187.429688 90.195312 186.179688 88.785156 C 185.542969 88.066406 185.035156 87.222656 184.714844 86.320312 L 184.710938 86.324219 C 183.242188 86.570312 181.730469 86.75 180.261719 86.492188 C 178.792969 86.234375 177.355469 85.492188 176.558594 84.238281 C 176.058594 83.457031 175.855469 82.550781 175.855469 81.625 C 175.855469 80.789062 176.023438 79.9375 176.296875 79.148438 C 177.730469 75.042969 181.808594 72.167969 186.128906 71.496094 C 189.460938 70.976562 193.085938 71.703125 195.617188 73.917969 C 197.761719 75.792969 198.964844 78.578125 199.304688 81.398438 C 199.371094 81.941406 199.40625 82.488281 199.40625 83.035156 M 184.445312 84.300781 C 184.445312 84.761719 184.507812 85.222656 184.609375 85.667969 C 184.738281 86.191406 184.925781 86.699219 185.167969 87.175781 C 185.410156 87.660156 185.710938 88.109375 186.050781 88.53125 C 186.394531 88.945312 186.773438 89.332031 187.195312 89.675781 C 187.613281 90.015625 188.074219 90.316406 188.550781 90.566406 C 189.027344 90.816406 189.535156 91.023438 190.058594 91.167969 C 191.105469 91.453125 192.210938 91.515625 193.277344 91.320312 C 193.8125 91.226562 194.332031 91.070312 194.832031 90.859375 C 195.328125 90.648438 195.796875 90.375 196.226562 90.050781 C 196.660156 89.726562 197.042969 89.34375 197.386719 88.933594 C 197.726562 88.511719 198.023438 88.0625 198.265625 87.582031 C 198.515625 87.105469 198.714844 86.605469 198.867188 86.089844 C 199.015625 85.574219 199.125 85.046875 199.191406 84.511719 C 199.246094 84.046875 199.273438 83.578125 199.273438 83.109375 C 199.273438 82.507812 199.230469 81.898438 199.148438 81.296875 C 199.003906 80.230469 198.738281 79.183594 198.34375 78.183594 C 198.152344 77.683594 197.917969 77.199219 197.65625 76.730469 C 197.589844 76.617188 197.527344 76.496094 197.453125 76.382812 L 197.238281 76.042969 C 197.167969 75.929688 197.085938 75.824219 197.011719 75.714844 L 196.894531 75.550781 L 196.769531 75.390625 C 196.609375 75.175781 196.429688 74.976562 196.253906 74.777344 C 196.066406 74.585938 195.886719 74.386719 195.683594 74.214844 C 195.492188 74.027344 195.277344 73.863281 195.070312 73.695312 C 194.96875 73.609375 194.851562 73.539062 194.746094 73.460938 C 194.636719 73.382812 194.53125 73.304688 194.414062 73.234375 C 193.507812 72.664062 192.511719 72.226562 191.476562 71.953125 C 190.957031 71.804688 190.425781 71.71875 189.894531 71.636719 L 189.496094 71.59375 L 189.292969 71.570312 L 189.089844 71.558594 L 188.6875 71.535156 C 188.554688 71.53125 188.421875 71.53125 188.285156 71.53125 C 188.015625 71.519531 187.746094 71.539062 187.476562 71.546875 C 187.34375 71.550781 187.207031 71.566406 187.074219 71.578125 C 186.941406 71.589844 186.808594 71.59375 186.671875 71.613281 C 186.140625 71.679688 185.605469 71.773438 185.082031 71.898438 C 182.992188 72.40625 181.019531 73.421875 179.414062 74.847656 C 178.613281 75.566406 177.90625 76.390625 177.347656 77.300781 C 177.0625 77.757812 176.820312 78.238281 176.617188 78.730469 C 176.511719 78.976562 176.421875 79.230469 176.339844 79.484375 C 176.261719 79.742188 176.1875 80 176.140625 80.257812 C 176.046875 80.71875 175.988281 81.1875 175.988281 81.65625 C 175.988281 81.71875 175.988281 81.78125 175.992188 81.847656 L 176 82.046875 L 176.015625 82.242188 C 176.027344 82.378906 176.046875 82.507812 176.070312 82.636719 L 176.109375 82.832031 L 176.152344 83.027344 L 176.214844 83.21875 L 176.242188 83.3125 L 176.273438 83.402344 C 176.457031 83.902344 176.730469 84.363281 177.089844 84.757812 C 177.269531 84.953125 177.464844 85.140625 177.675781 85.300781 C 177.886719 85.460938 178.109375 85.609375 178.347656 85.738281 C 178.460938 85.804688 178.585938 85.863281 178.707031 85.921875 C 178.828125 85.980469 178.949219 86.035156 179.078125 86.082031 C 179.203125 86.132812 179.328125 86.171875 179.457031 86.214844 C 179.589844 86.253906 179.714844 86.296875 179.847656 86.328125 C 180.109375 86.394531 180.375 86.445312 180.644531 86.480469 C 180.910156 86.519531 181.183594 86.542969 181.453125 86.554688 C 182.515625 86.597656 183.574219 86.476562 184.628906 86.320312 C 184.558594 86.117188 184.496094 85.914062 184.445312 85.710938 C 184.320312 85.222656 184.25 84.722656 184.25 84.214844 C 184.25 84.167969 184.25 84.121094 184.253906 84.070312 C 184.28125 82.96875 184.613281 81.863281 185.269531 80.953125 C 185.589844 80.5 186 80.101562 186.460938 79.78125 C 186.925781 79.472656 187.441406 79.234375 187.988281 79.089844 C 188.527344 78.949219 189.09375 78.886719 189.65625 78.914062 C 190.21875 78.949219 190.777344 79.070312 191.296875 79.285156 C 191.820312 79.5 192.300781 79.800781 192.730469 80.160156 C 193.15625 80.527344 193.527344 80.953125 193.828125 81.425781 C 194.125 81.898438 194.355469 82.417969 194.5 82.957031 C 194.59375 83.316406 194.648438 83.6875 194.648438 84.0625 C 194.648438 84.253906 194.636719 84.445312 194.601562 84.636719 C 194.554688 84.917969 194.464844 85.195312 194.328125 85.449219 C 194.195312 85.703125 194.011719 85.933594 193.800781 86.128906 C 193.375 86.519531 192.859375 86.773438 192.324219 86.941406 C 191.785156 87.105469 191.226562 87.195312 190.664062 87.171875 C 190.101562 87.15625 189.539062 87.035156 189.03125 86.78125 C 188.777344 86.652344 188.542969 86.496094 188.332031 86.300781 C 188.121094 86.109375 187.949219 85.886719 187.804688 85.644531 C 187.5625 85.222656 187.414062 84.738281 187.414062 84.25 C 187.414062 84.171875 187.417969 84.097656 187.425781 84.023438 C 187.453125 83.742188 187.527344 83.460938 187.660156 83.210938 C 187.789062 82.960938 187.980469 82.738281 188.203125 82.5625 C 188.421875 82.386719 188.683594 82.261719 188.949219 82.175781 C 189.21875 82.09375 189.5 82.054688 189.78125 82.082031 C 190.0625 82.101562 190.339844 82.179688 190.585938 82.316406 C 190.832031 82.449219 191.046875 82.632812 191.222656 82.84375 C 191.542969 83.230469 191.726562 83.722656 191.726562 84.214844 C 191.726562 84.269531 191.722656 84.324219 191.71875 84.382812 L 191.683594 84.378906 C 191.683594 84.34375 191.6875 84.308594 191.6875 84.277344 C 191.6875 83.773438 191.488281 83.277344 191.160156 82.898438 C 190.984375 82.699219 190.773438 82.527344 190.535156 82.402344 C 190.300781 82.285156 190.039062 82.214844 189.773438 82.203125 C 189.507812 82.183594 189.242188 82.226562 188.992188 82.308594 C 188.742188 82.390625 188.503906 82.519531 188.300781 82.6875 C 188.101562 82.855469 187.929688 83.058594 187.816406 83.292969 C 187.699219 83.523438 187.632812 83.777344 187.609375 84.039062 C 187.609375 84.097656 187.605469 84.15625 187.605469 84.214844 C 187.605469 84.675781 187.75 85.140625 187.988281 85.535156 C 188.121094 85.761719 188.289062 85.96875 188.484375 86.140625 C 188.679688 86.3125 188.902344 86.457031 189.136719 86.570312 C 189.613281 86.800781 190.140625 86.90625 190.671875 86.914062 C 190.9375 86.921875 191.199219 86.902344 191.464844 86.863281 C 191.726562 86.820312 191.984375 86.761719 192.238281 86.679688 C 192.742188 86.515625 193.226562 86.273438 193.601562 85.917969 C 193.789062 85.742188 193.949219 85.539062 194.066406 85.3125 C 194.183594 85.085938 194.261719 84.839844 194.304688 84.585938 C 194.332031 84.417969 194.34375 84.246094 194.34375 84.078125 C 194.34375 83.730469 194.292969 83.378906 194.203125 83.035156 C 194.066406 82.527344 193.839844 82.042969 193.558594 81.597656 C 193.277344 81.152344 192.917969 80.75 192.523438 80.40625 C 192.121094 80.058594 191.664062 79.777344 191.175781 79.574219 C 190.6875 79.371094 190.164062 79.257812 189.636719 79.21875 C 189.113281 79.191406 188.574219 79.242188 188.0625 79.371094 C 187.550781 79.507812 187.058594 79.71875 186.613281 80.011719 C 186.394531 80.160156 186.183594 80.320312 185.996094 80.503906 C 185.894531 80.59375 185.808594 80.695312 185.71875 80.792969 L 185.59375 80.941406 L 185.53125 81.019531 L 185.472656 81.101562 C 184.835938 81.953125 184.492188 83.011719 184.449219 84.078125 C 184.445312 84.152344 184.445312 84.226562 184.445312 84.300781 " fill-opacity="1" fill-rule="nonzero"/><g clip-path="url(#26d2ecc3f5)"><path fill="#ffc500" d="M 196.769531 374.625 L 186.160156 364.476562 C 186.046875 364.371094 185.90625 364.320312 185.757812 364.332031 L 171.96875 365.445312 C 171.417969 365.488281 171.15625 364.710938 171.597656 364.347656 L 178.476562 358.742188 C 178.71875 358.542969 178.765625 358.164062 178.585938 357.894531 L 172.382812 348.703125 C 172.042969 348.199219 172.527344 347.53125 173.046875 347.789062 L 184.257812 353.453125 C 184.515625 353.585938 184.824219 353.472656 184.960938 353.199219 L 189.75 343.589844 C 190.003906 343.074219 190.699219 343.222656 190.769531 343.800781 L 192.089844 354.132812 C 192.132812 354.457031 192.40625 354.691406 192.703125 354.652344 L 203.265625 353.222656 C 203.820312 353.152344 204.113281 353.933594 203.671875 354.304688 L 194.328125 362.253906 C 194.144531 362.414062 194.070312 362.6875 194.148438 362.9375 L 197.644531 373.96875 C 197.828125 374.554688 197.191406 375.03125 196.769531 374.625 " fill-opacity="1" fill-rule="nonzero"/></g><path fill="#5c21b5" d="M 199.039062 356.300781 L 189.554688 359.855469 L 195.117188 370.894531 L 186.785156 360.410156 L 176.476562 363.574219 L 184.363281 358.679688 L 176.847656 352.578125 L 186.144531 357.214844 L 189.03125 349.429688 L 188.417969 357.664062 L 199.039062 356.300781 " fill-opacity="1" fill-rule="nonzero"/><path fill="#ffc500" d="M 200.414062 288.746094 L 189.882812 289.054688 C 189.773438 289.058594 189.671875 289.105469 189.605469 289.183594 L 183.269531 296.75 C 183.019531 297.050781 182.488281 296.796875 182.523438 296.390625 L 183.085938 290.089844 C 183.105469 289.863281 182.933594 289.648438 182.703125 289.605469 L 174.871094 288.15625 C 174.445312 288.074219 174.339844 287.492188 174.734375 287.359375 L 183.265625 284.5 C 183.460938 284.433594 183.558594 284.222656 183.484375 284.015625 L 180.945312 276.765625 C 180.808594 276.378906 181.234375 276.097656 181.566406 276.351562 L 187.535156 280.855469 C 187.726562 281 187.980469 280.980469 188.109375 280.808594 L 192.667969 274.722656 C 192.90625 274.40625 193.457031 274.648438 193.429688 275.058594 L 192.835938 283.792969 C 192.824219 283.964844 192.925781 284.140625 193.09375 284.222656 L 200.515625 287.976562 C 200.90625 288.175781 200.835938 288.734375 200.414062 288.746094 " fill-opacity="1" fill-rule="nonzero"/><path fill="#5c21b5" d="M 197.667969 287.71875 L 188.105469 286.699219 L 184.566406 293.523438 L 186.003906 287.058594 L 179.101562 287.828125 L 186.144531 285.425781 L 183.585938 280.058594 L 187.511719 284.492188 L 192.132812 278.410156 L 189.207031 285.015625 L 197.667969 287.71875 " fill-opacity="1" fill-rule="nonzero"/><path fill="#ffc500" d="M 180.367188 322.960938 C 179.507812 323.011719 178.574219 323.132812 177.78125 323.46875 C 176.027344 324.214844 177.394531 325.882812 178.320312 326.828125 C 180.085938 328.636719 182.09375 330.21875 184.269531 331.511719 C 186.652344 332.925781 186.046875 328.230469 185.820312 327.113281 L 180.367188 322.960938 " fill-opacity="1" fill-rule="nonzero"/><path fill="#ffc500" d="M 181.457031 328.585938 C 181.511719 328.683594 182.292969 328.695312 182.398438 328.707031 C 183.21875 328.804688 184.042969 328.878906 184.871094 328.933594 C 187.261719 329.097656 189.6875 329.121094 192.074219 328.835938 C 194.253906 328.570312 196.730469 328.074219 198.398438 326.539062 C 198.933594 326.050781 199.632812 325.308594 199.585938 324.53125 C 199.527344 323.542969 198.910156 322.855469 198.007812 322.761719 C 198.007812 322.761719 200.753906 320.753906 197.5625 319.15625 C 197.5625 319.15625 199.503906 317.101562 196.664062 315.882812 C 196.664062 315.882812 197.011719 312.867188 193.808594 312.921875 C 193.808594 312.921875 193.4375 309.75 190.351562 310.75 C 190.351562 310.75 189.304688 308.144531 186.679688 309.652344 C 186.679688 309.652344 184.597656 306.804688 182.484375 309.640625 C 182.484375 309.640625 180.367188 307.429688 178.679688 309.878906 C 178.765625 309.75 177.738281 309.421875 177.664062 309.414062 C 177.273438 309.382812 176.898438 309.507812 176.574219 309.71875 C 175.222656 310.605469 175.734375 313.054688 175.957031 314.421875 C 176.363281 316.957031 177.171875 319.417969 178.140625 321.789062 C 179.09375 324.125 180.222656 326.386719 181.457031 328.585938 " fill-opacity="1" fill-rule="nonzero"/><path fill="#5c21b5" d="M 197.984375 324.835938 C 197.984375 324.859375 197.980469 324.878906 197.980469 324.902344 C 197.601562 326.976562 182.039062 327.992188 182.039062 327.992188 C 182.039062 327.992188 197.984375 322.945312 197.984375 324.835938 " fill-opacity="1" fill-rule="nonzero"/><path fill="#5c21b5" d="M 198.433594 320.8125 C 198.433594 320.8125 198.433594 320.8125 198.433594 320.816406 C 198.414062 322.136719 183.195312 327.097656 183.050781 327.144531 C 183.050781 327.144531 198.433594 318.449219 198.433594 320.8125 " fill-opacity="1" fill-rule="nonzero"/><path fill="#5c21b5" d="M 197.46875 317.324219 C 197.46875 319.066406 183.683594 325.882812 183.683594 325.882812 C 183.683594 325.882812 196.285156 315.785156 197.40625 317.148438 C 197.449219 317.203125 197.46875 317.261719 197.46875 317.324219 " fill-opacity="1" fill-rule="nonzero"/><path fill="#5c21b5" d="M 181.625 327.5 C 181.625 327.5 177.015625 315.585938 177.015625 311.597656 C 177.015625 311.003906 177.121094 310.582031 177.359375 310.40625 C 178.585938 309.5 181.625 327.5 181.625 327.5 " fill-opacity="1" fill-rule="nonzero"/><path fill="#5c21b5" d="M 182.074219 325.746094 C 182.074219 326.128906 182.070312 326.339844 182.070312 326.339844 C 182.070312 326.339844 180.238281 315.878906 180.238281 311.515625 C 180.238281 310.390625 180.363281 309.671875 180.667969 309.644531 C 181.996094 309.523438 182.074219 322.765625 182.074219 325.746094 " fill-opacity="1" fill-rule="nonzero"/><path fill="#5c21b5" d="M 185.007812 310.800781 C 185.007812 314.945312 182.460938 326 182.460938 326 C 182.460938 326 182.871094 309.296875 184.53125 309.257812 C 184.871094 309.25 185.007812 309.839844 185.007812 310.800781 " fill-opacity="1" fill-rule="nonzero"/><path fill="#5c21b5" d="M 188.765625 310.695312 C 188.765625 313.152344 183 325.105469 183 325.105469 C 183 325.105469 187.011719 309.464844 188.617188 310.28125 C 188.71875 310.328125 188.765625 310.476562 188.765625 310.695312 " fill-opacity="1" fill-rule="nonzero"/><path fill="#5c21b5" d="M 192.335938 312.308594 C 192.335938 314.605469 184.207031 324.496094 184.207031 324.496094 C 184.207031 324.496094 190.6875 310.839844 192.175781 311.917969 C 192.285156 311.992188 192.335938 312.128906 192.335938 312.308594 " fill-opacity="1" fill-rule="nonzero"/><path fill="#5c21b5" d="M 195.390625 314.523438 C 195.390625 316.214844 186.308594 323.0625 186.308594 323.0625 C 186.308594 323.0625 194.328125 313.050781 195.328125 314.316406 C 195.371094 314.375 195.390625 314.441406 195.390625 314.523438 " fill-opacity="1" fill-rule="nonzero"/><path fill="#ffc500" d="M 186.917969 228.113281 C 186.527344 228.617188 186.140625 229.207031 185.945312 229.816406 C 185.515625 231.175781 187.140625 231.21875 188.132812 231.15625 C 190.03125 231.042969 191.910156 230.679688 193.710938 230.078125 C 195.683594 229.425781 192.703125 227.472656 191.957031 227.054688 L 186.917969 228.113281 " fill-opacity="1" fill-rule="nonzero"/><path fill="#ffc500" d="M 190.664062 230.238281 C 190.75 230.257812 191.136719 229.820312 191.195312 229.769531 C 191.652344 229.351562 192.097656 228.921875 192.53125 228.484375 C 193.792969 227.210938 194.992188 225.851562 195.992188 224.363281 C 196.90625 223.003906 197.832031 221.359375 197.773438 219.667969 C 197.753906 219.128906 197.667969 218.371094 197.203125 218.015625 C 196.609375 217.570312 195.914062 217.582031 195.421875 218.042969 C 195.421875 218.042969 195.613281 215.511719 193.136719 216.535156 C 193.136719 216.535156 192.914062 214.433594 190.832031 215.445312 C 190.832031 215.445312 189.277344 213.777344 187.742188 215.613281 C 187.742188 215.613281 185.75 214.273438 184.816406 216.507812 C 184.816406 216.507812 182.8125 215.824219 182.394531 218.042969 C 182.394531 218.042969 179.746094 217.828125 180.34375 220.410156 C 180.34375 220.410156 178.039062 220.527344 178.617188 222.675781 C 178.585938 222.5625 177.894531 222.984375 177.855469 223.023438 C 177.644531 223.226562 177.539062 223.5 177.5 223.789062 C 177.347656 224.984375 178.996094 225.890625 179.886719 226.4375 C 181.53125 227.441406 183.335938 228.183594 185.164062 228.796875 C 186.960938 229.398438 188.804688 229.863281 190.664062 230.238281 " fill-opacity="1" fill-rule="nonzero"/><path fill="#5c21b5" d="M 196.726562 219.453125 C 196.726562 221.527344 190.609375 229.621094 190.609375 229.621094 C 190.609375 229.621094 195.628906 217.882812 196.628906 219.105469 C 196.695312 219.1875 196.726562 219.308594 196.726562 219.453125 " fill-opacity="1" fill-rule="nonzero"/><path fill="#5c21b5" d="M 194.597656 217.167969 C 194.597656 219.101562 190.664062 228.539062 190.621094 228.640625 C 190.621094 228.640625 193.171875 215.671875 194.515625 216.855469 C 194.570312 216.90625 194.597656 217.011719 194.597656 217.167969 " fill-opacity="1" fill-rule="nonzero"/><path fill="#5c21b5" d="M 192.261719 216.691406 C 192.261719 219.613281 190.207031 227.664062 190.207031 227.664062 C 190.207031 227.664062 190.59375 215.613281 191.917969 215.644531 C 192.164062 215.648438 192.261719 216.042969 192.261719 216.691406 " fill-opacity="1" fill-rule="nonzero"/><path fill="#5c21b5" d="M 190.128906 229.617188 C 190.128906 229.617188 178.273438 225.410156 178.273438 223.707031 C 178.273438 223.695312 178.273438 223.6875 178.277344 223.683594 C 178.359375 222.539062 190.128906 229.617188 190.128906 229.617188 " fill-opacity="1" fill-rule="nonzero"/><path fill="#5c21b5" d="M 189.683594 228.800781 C 189.683594 228.800781 179.425781 222.71875 179.425781 221.53125 C 179.425781 221.496094 179.433594 221.464844 179.457031 221.4375 C 180.109375 220.523438 189.683594 228.800781 189.683594 228.800781 " fill-opacity="1" fill-rule="nonzero"/><path fill="#5c21b5" d="M 189.679688 228.414062 C 189.679688 228.414062 181.074219 220.6875 181.074219 219.21875 C 181.074219 219.15625 181.089844 219.101562 181.121094 219.066406 C 181.972656 218.03125 189.679688 228.414062 189.679688 228.414062 " fill-opacity="1" fill-rule="nonzero"/><path fill="#5c21b5" d="M 189.429688 227.671875 C 189.429688 227.671875 183.550781 219.328125 183.550781 217.5625 C 183.550781 217.402344 183.597656 217.296875 183.699219 217.257812 C 184.660156 216.863281 189.429688 227.671875 189.429688 227.671875 " fill-opacity="1" fill-rule="nonzero"/><path fill="#5c21b5" d="M 189.671875 226.691406 C 189.671875 226.691406 186.128906 218.804688 186.128906 216.601562 C 186.128906 216.285156 186.203125 216.082031 186.371094 216.042969 C 187.714844 215.726562 189.671875 226.691406 189.671875 226.691406 " fill-opacity="1" fill-rule="nonzero"/><path fill="#5c21b5" d="M 190.019531 220.195312 C 190.019531 222.515625 189.875 224.804688 189.875 224.804688 C 189.875 224.804688 188.863281 219.519531 188.863281 216.890625 C 188.863281 216.007812 188.980469 215.421875 189.28125 215.4375 C 189.871094 215.460938 190.019531 217.84375 190.019531 220.195312 " fill-opacity="1" fill-rule="nonzero"/><path fill="#ffc500" d="M 191.703125 255.90625 C 191.773438 254.976562 191.140625 254.042969 190.257812 253.753906 C 189.367188 253.46875 188.304688 253.851562 187.8125 254.644531 C 187.15625 255.691406 187.617188 257.183594 188.617188 257.917969 C 189.613281 258.652344 190.992188 258.71875 192.179688 258.367188 C 192.957031 258.136719 193.707031 257.714844 194.128906 257.03125 C 194.585938 256.28125 194.574219 255.335938 194.339844 254.492188 C 193.886719 252.816406 192.570312 251.382812 190.914062 250.835938 C 189.261719 250.285156 187.3125 250.65625 186.023438 251.820312 C 184.851562 252.875 184.273438 254.496094 184.355469 256.0625 C 184.433594 257.628906 185.140625 259.128906 186.179688 260.308594 C 187.429688 261.71875 189.175781 262.699219 191.046875 262.953125 C 192.917969 263.207031 194.898438 262.714844 196.378906 261.554688 C 197.636719 260.574219 198.515625 259.160156 198.976562 257.640625 C 199.433594 256.117188 199.496094 254.496094 199.304688 252.921875 C 198.964844 250.101562 197.761719 247.316406 195.617188 245.441406 C 193.085938 243.226562 189.460938 242.503906 186.128906 243.019531 C 181.808594 243.695312 177.730469 246.566406 176.296875 250.671875 C 175.71875 252.335938 175.613281 254.277344 176.558594 255.765625 C 177.355469 257.015625 178.792969 257.761719 180.261719 258.019531 C 181.730469 258.273438 183.242188 258.097656 184.710938 257.847656 L 191.703125 255.90625 " fill-opacity="1" fill-rule="nonzero"/><path fill="#ffc500" d="M 199.539062 254.425781 C 199.539062 254.976562 199.507812 255.523438 199.433594 256.070312 C 199.359375 256.613281 199.238281 257.152344 199.078125 257.679688 C 198.910156 258.203125 198.703125 258.714844 198.441406 259.195312 C 198.183594 259.683594 197.871094 260.140625 197.523438 260.566406 C 197.164062 260.984375 196.765625 261.371094 196.320312 261.695312 C 195.875 262.023438 195.390625 262.296875 194.886719 262.507812 C 194.375 262.71875 193.839844 262.871094 193.300781 262.964844 C 192.214844 263.164062 191.085938 263.09375 190.03125 262.796875 C 188.96875 262.496094 187.980469 261.980469 187.121094 261.289062 C 186.699219 260.941406 186.304688 260.558594 185.949219 260.136719 C 185.605469 259.710938 185.292969 259.253906 185.039062 258.769531 C 184.886719 258.484375 184.753906 258.183594 184.644531 257.878906 C 183.59375 258.066406 182.527344 258.21875 181.449219 258.195312 C 181.175781 258.183594 180.902344 258.171875 180.628906 258.136719 C 180.355469 258.105469 180.078125 258.0625 179.8125 257.996094 C 179.675781 257.972656 179.542969 257.929688 179.410156 257.894531 C 179.28125 257.851562 179.148438 257.808594 179.015625 257.761719 C 178.886719 257.714844 178.761719 257.65625 178.632812 257.605469 C 178.507812 257.546875 178.382812 257.492188 178.261719 257.425781 C 178.015625 257.296875 177.78125 257.144531 177.558594 256.976562 C 177.335938 256.8125 177.128906 256.621094 176.9375 256.421875 C 176.554688 256.015625 176.257812 255.53125 176.058594 255.011719 L 176.019531 254.914062 L 175.988281 254.8125 L 175.925781 254.613281 L 175.875 254.410156 C 175.855469 254.34375 175.839844 254.277344 175.832031 254.207031 C 175.804688 254.070312 175.777344 253.9375 175.765625 253.796875 C 175.757812 253.726562 175.746094 253.65625 175.746094 253.589844 L 175.730469 253.378906 C 175.726562 253.285156 175.722656 253.191406 175.722656 253.09375 C 175.722656 252.632812 175.777344 252.175781 175.867188 251.730469 C 175.914062 251.457031 175.988281 251.191406 176.066406 250.925781 C 176.148438 250.660156 176.238281 250.402344 176.34375 250.148438 C 176.546875 249.632812 176.796875 249.140625 177.082031 248.664062 C 177.648438 247.71875 178.367188 246.867188 179.183594 246.121094 C 180 245.375 180.917969 244.746094 181.894531 244.230469 C 182.875 243.71875 183.917969 243.324219 184.996094 243.054688 C 185.53125 242.921875 186.078125 242.828125 186.628906 242.765625 C 186.765625 242.742188 186.90625 242.738281 187.042969 242.726562 C 187.179688 242.714844 187.320312 242.699219 187.457031 242.695312 C 187.734375 242.6875 188.011719 242.667969 188.289062 242.675781 C 188.425781 242.679688 188.5625 242.679688 188.703125 242.683594 L 189.324219 242.71875 L 189.945312 242.789062 L 190.355469 242.855469 L 190.5625 242.886719 C 190.628906 242.898438 190.695312 242.914062 190.765625 242.925781 L 191.171875 243.015625 C 191.308594 243.046875 191.441406 243.089844 191.570312 243.125 C 192.644531 243.410156 193.671875 243.863281 194.605469 244.464844 C 194.722656 244.535156 194.835938 244.621094 194.949219 244.699219 C 195.058594 244.78125 195.175781 244.859375 195.285156 244.945312 C 195.496094 245.125 195.722656 245.292969 195.917969 245.484375 C 196.125 245.667969 196.3125 245.875 196.503906 246.074219 C 196.6875 246.285156 196.871094 246.488281 197.035156 246.714844 L 197.160156 246.878906 L 197.28125 247.042969 C 197.359375 247.160156 197.441406 247.273438 197.515625 247.386719 L 197.734375 247.738281 C 197.8125 247.855469 197.871094 247.976562 197.941406 248.097656 C 198.207031 248.582031 198.445312 249.078125 198.636719 249.597656 C 199.03125 250.625 199.292969 251.699219 199.429688 252.785156 C 199.5 253.332031 199.53125 253.878906 199.539062 254.425781 M 184.714844 257.84375 C 185.035156 258.75 185.542969 259.589844 186.179688 260.308594 C 187.429688 261.71875 189.175781 262.699219 191.046875 262.953125 C 192.917969 263.207031 194.898438 262.714844 196.378906 261.554688 C 197.636719 260.574219 198.515625 259.160156 198.976562 257.640625 C 199.277344 256.644531 199.40625 255.601562 199.40625 254.558594 C 199.40625 254.011719 199.371094 253.464844 199.304688 252.921875 C 198.964844 250.101562 197.761719 247.316406 195.617188 245.441406 C 193.085938 243.226562 189.460938 242.503906 186.128906 243.019531 C 181.808594 243.695312 177.730469 246.566406 176.296875 250.671875 C 176.023438 251.464844 175.855469 252.316406 175.855469 253.152344 C 175.855469 254.078125 176.058594 254.984375 176.558594 255.765625 C 177.355469 257.015625 178.792969 257.761719 180.261719 258.019531 C 181.730469 258.273438 183.242188 258.097656 184.710938 257.847656 L 184.714844 257.84375 " fill-opacity="1" fill-rule="nonzero"/><path fill="#5c21b5" d="M 199.40625 254.558594 C 199.40625 255.601562 199.277344 256.644531 198.976562 257.640625 C 198.515625 259.160156 197.636719 260.574219 196.378906 261.554688 C 194.898438 262.714844 192.917969 263.207031 191.046875 262.953125 C 189.175781 262.699219 187.429688 261.71875 186.179688 260.308594 C 185.542969 259.589844 185.035156 258.75 184.714844 257.84375 L 184.710938 257.847656 C 183.242188 258.097656 181.730469 258.273438 180.261719 258.019531 C 178.792969 257.761719 177.355469 257.015625 176.558594 255.765625 C 176.058594 254.984375 175.855469 254.078125 175.855469 253.152344 C 175.855469 252.316406 176.023438 251.464844 176.296875 250.671875 C 177.730469 246.566406 181.808594 243.695312 186.128906 243.019531 C 189.460938 242.503906 193.085938 243.226562 195.617188 245.441406 C 197.761719 247.316406 198.964844 250.101562 199.304688 252.921875 C 199.371094 253.464844 199.40625 254.011719 199.40625 254.558594 M 184.445312 255.828125 C 184.445312 256.285156 184.507812 256.746094 184.609375 257.195312 C 184.738281 257.714844 184.925781 258.222656 185.167969 258.703125 C 185.410156 259.183594 185.710938 259.636719 186.050781 260.054688 C 186.394531 260.46875 186.773438 260.859375 187.195312 261.199219 C 187.613281 261.542969 188.074219 261.839844 188.550781 262.089844 C 189.027344 262.34375 189.535156 262.546875 190.058594 262.691406 C 191.105469 262.980469 192.210938 263.039062 193.277344 262.84375 C 193.8125 262.75 194.332031 262.597656 194.832031 262.386719 C 195.328125 262.171875 195.796875 261.898438 196.226562 261.574219 C 196.660156 261.25 197.042969 260.867188 197.386719 260.457031 C 197.726562 260.035156 198.023438 259.585938 198.265625 259.109375 C 198.515625 258.632812 198.714844 258.128906 198.867188 257.617188 C 199.015625 257.097656 199.125 256.574219 199.191406 256.039062 C 199.246094 255.574219 199.273438 255.101562 199.273438 254.636719 C 199.273438 254.03125 199.230469 253.421875 199.148438 252.820312 C 199.003906 251.757812 198.738281 250.707031 198.34375 249.707031 C 198.152344 249.207031 197.917969 248.722656 197.65625 248.257812 C 197.589844 248.140625 197.527344 248.019531 197.453125 247.90625 L 197.238281 247.570312 C 197.167969 247.453125 197.085938 247.347656 197.011719 247.238281 L 196.894531 247.074219 L 196.769531 246.914062 C 196.609375 246.703125 196.429688 246.503906 196.253906 246.300781 C 196.066406 246.109375 195.886719 245.914062 195.683594 245.738281 C 195.492188 245.550781 195.277344 245.390625 195.070312 245.21875 C 194.96875 245.136719 194.851562 245.0625 194.746094 244.984375 C 194.636719 244.910156 194.53125 244.828125 194.414062 244.757812 C 193.507812 244.1875 192.511719 243.753906 191.476562 243.476562 C 190.957031 243.328125 190.425781 243.242188 189.894531 243.160156 L 189.496094 243.117188 L 189.292969 243.097656 L 189.089844 243.082031 L 188.6875 243.058594 C 188.554688 243.054688 188.421875 243.054688 188.285156 243.054688 C 188.015625 243.042969 187.746094 243.066406 187.476562 243.070312 C 187.34375 243.078125 187.207031 243.089844 187.074219 243.101562 C 186.941406 243.113281 186.808594 243.121094 186.671875 243.140625 C 186.140625 243.203125 185.605469 243.296875 185.082031 243.421875 C 182.992188 243.929688 181.019531 244.945312 179.414062 246.375 C 178.613281 247.089844 177.90625 247.914062 177.347656 248.828125 C 177.0625 249.285156 176.820312 249.761719 176.617188 250.253906 C 176.511719 250.503906 176.421875 250.753906 176.339844 251.007812 C 176.261719 251.265625 176.1875 251.523438 176.140625 251.785156 C 176.046875 252.246094 175.988281 252.710938 175.988281 253.179688 C 175.988281 253.246094 175.988281 253.308594 175.992188 253.371094 L 176 253.570312 L 176.015625 253.769531 C 176.027344 253.902344 176.046875 254.03125 176.070312 254.164062 L 176.109375 254.355469 L 176.152344 254.554688 L 176.214844 254.742188 L 176.242188 254.835938 L 176.273438 254.929688 C 176.457031 255.429688 176.730469 255.890625 177.089844 256.28125 C 177.269531 256.480469 177.464844 256.664062 177.675781 256.824219 C 177.886719 256.988281 178.109375 257.136719 178.347656 257.265625 C 178.460938 257.332031 178.585938 257.390625 178.707031 257.449219 C 178.828125 257.503906 178.949219 257.558594 179.078125 257.605469 C 179.203125 257.65625 179.328125 257.699219 179.457031 257.742188 C 179.589844 257.777344 179.714844 257.820312 179.847656 257.851562 C 180.109375 257.921875 180.375 257.96875 180.644531 258.007812 C 180.910156 258.042969 181.183594 258.066406 181.453125 258.078125 C 182.515625 258.125 183.574219 258.003906 184.628906 257.84375 C 184.558594 257.644531 184.496094 257.441406 184.445312 257.238281 C 184.320312 256.746094 184.25 256.246094 184.25 255.742188 C 184.25 255.691406 184.25 255.644531 184.253906 255.597656 C 184.28125 254.496094 184.613281 253.390625 185.269531 252.480469 C 185.589844 252.023438 186 251.628906 186.460938 251.308594 C 186.925781 250.996094 187.441406 250.761719 187.988281 250.613281 C 188.527344 250.472656 189.09375 250.410156 189.65625 250.4375 C 190.21875 250.472656 190.777344 250.59375 191.296875 250.808594 C 191.820312 251.027344 192.300781 251.324219 192.730469 251.6875 C 193.15625 252.054688 193.527344 252.480469 193.828125 252.953125 C 194.125 253.425781 194.355469 253.941406 194.5 254.484375 C 194.59375 254.839844 194.648438 255.214844 194.648438 255.585938 C 194.648438 255.78125 194.636719 255.96875 194.601562 256.160156 C 194.554688 256.441406 194.464844 256.71875 194.328125 256.976562 C 194.195312 257.230469 194.011719 257.460938 193.800781 257.652344 C 193.375 258.042969 192.859375 258.296875 192.324219 258.464844 C 191.785156 258.632812 191.226562 258.71875 190.664062 258.699219 C 190.101562 258.683594 189.539062 258.5625 189.03125 258.304688 C 188.777344 258.179688 188.542969 258.019531 188.332031 257.828125 C 188.121094 257.636719 187.949219 257.410156 187.804688 257.167969 C 187.5625 256.746094 187.414062 256.261719 187.414062 255.773438 C 187.414062 255.699219 187.417969 255.625 187.425781 255.546875 C 187.453125 255.265625 187.527344 254.988281 187.660156 254.738281 C 187.789062 254.484375 187.980469 254.261719 188.203125 254.089844 C 188.421875 253.914062 188.683594 253.785156 188.949219 253.699219 C 189.21875 253.621094 189.5 253.582031 189.78125 253.605469 C 190.0625 253.625 190.339844 253.707031 190.585938 253.839844 C 190.832031 253.972656 191.046875 254.160156 191.222656 254.371094 C 191.542969 254.753906 191.726562 255.246094 191.726562 255.742188 C 191.726562 255.796875 191.722656 255.847656 191.71875 255.90625 L 191.683594 255.902344 C 191.683594 255.871094 191.6875 255.835938 191.6875 255.804688 C 191.6875 255.296875 191.488281 254.800781 191.160156 254.425781 C 190.984375 254.222656 190.773438 254.050781 190.535156 253.929688 C 190.300781 253.808594 190.039062 253.738281 189.773438 253.726562 C 189.507812 253.707031 189.242188 253.75 188.992188 253.832031 C 188.742188 253.917969 188.503906 254.042969 188.300781 254.210938 C 188.101562 254.378906 187.929688 254.582031 187.816406 254.816406 C 187.699219 255.046875 187.632812 255.304688 187.609375 255.5625 C 187.609375 255.621094 187.605469 255.679688 187.605469 255.742188 C 187.605469 256.203125 187.75 256.664062 187.988281 257.0625 C 188.121094 257.285156 188.289062 257.492188 188.484375 257.664062 C 188.679688 257.835938 188.902344 257.980469 189.136719 258.09375 C 189.613281 258.328125 190.140625 258.433594 190.671875 258.441406 C 190.9375 258.445312 191.199219 258.425781 191.464844 258.390625 C 191.726562 258.347656 191.984375 258.285156 192.238281 258.207031 C 192.742188 258.042969 193.226562 257.796875 193.601562 257.445312 C 193.789062 257.269531 193.949219 257.0625 194.066406 256.839844 C 194.183594 256.613281 194.261719 256.363281 194.304688 256.113281 C 194.332031 255.941406 194.34375 255.773438 194.34375 255.601562 C 194.34375 255.253906 194.292969 254.902344 194.203125 254.5625 C 194.066406 254.054688 193.839844 253.566406 193.558594 253.121094 C 193.277344 252.675781 192.917969 252.277344 192.523438 251.929688 C 192.121094 251.585938 191.664062 251.304688 191.175781 251.101562 C 190.6875 250.898438 190.164062 250.785156 189.636719 250.746094 C 189.113281 250.71875 188.574219 250.769531 188.0625 250.898438 C 187.550781 251.03125 187.058594 251.246094 186.613281 251.535156 C 186.394531 251.6875 186.183594 251.84375 185.996094 252.03125 C 185.894531 252.117188 185.808594 252.21875 185.71875 252.316406 L 185.59375 252.46875 L 185.53125 252.546875 L 185.472656 252.625 C 184.835938 253.480469 184.492188 254.539062 184.449219 255.605469 C 184.445312 255.675781 184.445312 255.753906 184.445312 255.828125 " fill-opacity="1" fill-rule="nonzero"/></svg>