<svg xmlns="http://www.w3.org/2000/svg" xmlns:xlink="http://www.w3.org/1999/xlink" width="500" zoomAndPan="magnify" viewBox="0 0 375 374.999991" height="500" preserveAspectRatio="xMidYMid meet" version="1.0"><defs><clipPath id="ef55a80309"><path d="M 182 343 L 198.871094 343 L 198.871094 368 L 182 368 Z M 182 343 " clip-rule="nonzero"/></clipPath><clipPath id="2b7915101c"><path d="M 176.371094 347 L 198.871094 347 L 198.871094 375 L 176.371094 375 Z M 176.371094 347 " clip-rule="nonzero"/></clipPath><clipPath id="bc0a23ee47"><path d="M 182 312 L 198.871094 312 L 198.871094 337 L 182 337 Z M 182 312 " clip-rule="nonzero"/></clipPath><clipPath id="4ddd03c785"><path d="M 176.371094 316 L 198.871094 316 L 198.871094 344 L 176.371094 344 Z M 176.371094 316 " clip-rule="nonzero"/></clipPath><clipPath id="f48c43efd0"><path d="M 182 281 L 198.871094 281 L 198.871094 306 L 182 306 Z M 182 281 " clip-rule="nonzero"/></clipPath><clipPath id="1ad1174ffa"><path d="M 176.371094 284 L 198.871094 284 L 198.871094 313 L 176.371094 313 Z M 176.371094 284 " clip-rule="nonzero"/></clipPath><clipPath id="d0faa77c0c"><path d="M 182 250 L 198.871094 250 L 198.871094 275 L 182 275 Z M 182 250 " clip-rule="nonzero"/></clipPath><clipPath id="a3238e6279"><path d="M 176.371094 253 L 198.871094 253 L 198.871094 282 L 176.371094 282 Z M 176.371094 253 " clip-rule="nonzero"/></clipPath><clipPath id="1ae3e0baf8"><path d="M 182 218 L 198.871094 218 L 198.871094 243 L 182 243 Z M 182 218 " clip-rule="nonzero"/></clipPath><clipPath id="2dca914ae9"><path d="M 176.371094 222 L 198.871094 222 L 198.871094 251 L 176.371094 251 Z M 176.371094 222 " clip-rule="nonzero"/></clipPath><clipPath id="1474c15a6c"><path d="M 182 187 L 198.871094 187 L 198.871094 212 L 182 212 Z M 182 187 " clip-rule="nonzero"/></clipPath><clipPath id="bd4d523da1"><path d="M 176.371094 191 L 198.871094 191 L 198.871094 219 L 176.371094 219 Z M 176.371094 191 " clip-rule="nonzero"/></clipPath><clipPath id="3d61f5c05d"><path d="M 182 156 L 198.871094 156 L 198.871094 181 L 182 181 Z M 182 156 " clip-rule="nonzero"/></clipPath><clipPath id="5afbcbc500"><path d="M 176.371094 159 L 198.871094 159 L 198.871094 188 L 176.371094 188 Z M 176.371094 159 " clip-rule="nonzero"/></clipPath><clipPath id="a2c552b02f"><path d="M 182 125 L 198.871094 125 L 198.871094 150 L 182 150 Z M 182 125 " clip-rule="nonzero"/></clipPath><clipPath id="614a15aa76"><path d="M 176.371094 128 L 198.871094 128 L 198.871094 157 L 176.371094 157 Z M 176.371094 128 " clip-rule="nonzero"/></clipPath><clipPath id="55ca0cd8d3"><path d="M 182 93 L 198.871094 93 L 198.871094 118 L 182 118 Z M 182 93 " clip-rule="nonzero"/></clipPath><clipPath id="2566648750"><path d="M 176.371094 97 L 198.871094 97 L 198.871094 125 L 176.371094 125 Z M 176.371094 97 " clip-rule="nonzero"/></clipPath><clipPath id="06a6c601cd"><path d="M 182 62 L 198.871094 62 L 198.871094 87 L 182 87 Z M 182 62 " clip-rule="nonzero"/></clipPath><clipPath id="2cccd531b4"><path d="M 176.371094 66 L 198.871094 66 L 198.871094 94 L 176.371094 94 Z M 176.371094 66 " clip-rule="nonzero"/></clipPath><clipPath id="d9da45aa86"><path d="M 182 31 L 198.871094 31 L 198.871094 56 L 182 56 Z M 182 31 " clip-rule="nonzero"/></clipPath><clipPath id="32fd30da89"><path d="M 176.371094 34 L 198.871094 34 L 198.871094 63 L 176.371094 63 Z M 176.371094 34 " clip-rule="nonzero"/></clipPath><clipPath id="248800c90a"><path d="M 182 0 L 198.871094 0 L 198.871094 24 L 182 24 Z M 182 0 " clip-rule="nonzero"/></clipPath><clipPath id="4a66ceb319"><path d="M 176.371094 3 L 198.871094 3 L 198.871094 32 L 176.371094 32 Z M 176.371094 3 " clip-rule="nonzero"/></clipPath></defs><g clip-path="url(#ef55a80309)"><path fill="#ffc500" d="M 195.410156 343.878906 L 195.410156 364.5 L 186.300781 364.5 L 186.300781 354.144531 L 182.816406 354.144531 L 182.816406 367.941406 L 198.898438 367.941406 L 198.898438 343.878906 L 195.410156 343.878906 " fill-opacity="1" fill-rule="nonzero"/></g><g clip-path="url(#2b7915101c)"><path fill="#ffc500" d="M 198.855469 371.707031 L 179.910156 371.707031 L 179.910156 350.863281 L 189.023438 350.863281 L 189.023438 361.21875 L 192.511719 361.21875 L 192.511719 347.425781 L 176.421875 347.425781 L 176.421875 375.148438 L 198.855469 375.148438 L 198.855469 371.707031 " fill-opacity="1" fill-rule="nonzero"/></g><g clip-path="url(#bc0a23ee47)"><path fill="#ffc500" d="M 195.410156 312.609375 L 195.410156 333.234375 L 186.300781 333.234375 L 186.300781 322.878906 L 182.816406 322.878906 L 182.816406 336.671875 L 198.898438 336.671875 L 198.898438 312.609375 L 195.410156 312.609375 " fill-opacity="1" fill-rule="nonzero"/></g><g clip-path="url(#4ddd03c785)"><path fill="#ffc500" d="M 198.855469 340.441406 L 179.910156 340.441406 L 179.910156 319.59375 L 189.023438 319.59375 L 189.023438 329.949219 L 192.511719 329.949219 L 192.511719 316.15625 L 176.421875 316.15625 L 176.421875 343.878906 L 198.855469 343.878906 L 198.855469 340.441406 " fill-opacity="1" fill-rule="nonzero"/></g><g clip-path="url(#f48c43efd0)"><path fill="#ffc500" d="M 195.390625 281.34375 L 195.390625 301.964844 L 186.277344 301.964844 L 186.277344 291.609375 L 182.789062 291.609375 L 182.789062 305.402344 L 198.878906 305.402344 L 198.878906 281.34375 L 195.390625 281.34375 " fill-opacity="1" fill-rule="nonzero"/></g><g clip-path="url(#1ad1174ffa)"><path fill="#ffc500" d="M 198.832031 309.171875 L 179.890625 309.171875 L 179.890625 288.324219 L 189 288.324219 L 189 298.683594 L 192.488281 298.683594 L 192.488281 284.890625 L 176.402344 284.890625 L 176.402344 312.609375 L 198.832031 312.609375 L 198.832031 309.171875 " fill-opacity="1" fill-rule="nonzero"/></g><g clip-path="url(#d0faa77c0c)"><path fill="#ffc500" d="M 195.390625 250.074219 L 195.390625 270.695312 L 186.277344 270.695312 L 186.277344 260.339844 L 182.789062 260.339844 L 182.789062 274.136719 L 198.878906 274.136719 L 198.878906 250.074219 L 195.390625 250.074219 " fill-opacity="1" fill-rule="nonzero"/></g><g clip-path="url(#a3238e6279)"><path fill="#ffc500" d="M 198.832031 277.902344 L 179.890625 277.902344 L 179.890625 257.058594 L 189 257.058594 L 189 267.414062 L 192.488281 267.414062 L 192.488281 253.621094 L 176.402344 253.621094 L 176.402344 281.34375 L 198.832031 281.34375 L 198.832031 277.902344 " fill-opacity="1" fill-rule="nonzero"/></g><g clip-path="url(#1ae3e0baf8)"><path fill="#ffc500" d="M 195.410156 218.804688 L 195.410156 239.429688 L 186.300781 239.429688 L 186.300781 229.070312 L 182.816406 229.070312 L 182.816406 242.867188 L 198.898438 242.867188 L 198.898438 218.804688 L 195.410156 218.804688 " fill-opacity="1" fill-rule="nonzero"/></g><g clip-path="url(#2dca914ae9)"><path fill="#ffc500" d="M 198.855469 246.632812 L 179.910156 246.632812 L 179.910156 225.789062 L 189.023438 225.789062 L 189.023438 236.144531 L 192.511719 236.144531 L 192.511719 222.355469 L 176.421875 222.355469 L 176.421875 250.074219 L 198.855469 250.074219 L 198.855469 246.632812 " fill-opacity="1" fill-rule="nonzero"/></g><g clip-path="url(#1474c15a6c)"><path fill="#ffc500" d="M 195.410156 187.535156 L 195.410156 208.160156 L 186.300781 208.160156 L 186.300781 197.804688 L 182.816406 197.804688 L 182.816406 211.597656 L 198.898438 211.597656 L 198.898438 187.535156 L 195.410156 187.535156 " fill-opacity="1" fill-rule="nonzero"/></g><g clip-path="url(#bd4d523da1)"><path fill="#ffc500" d="M 198.855469 215.367188 L 179.910156 215.367188 L 179.910156 194.519531 L 189.023438 194.519531 L 189.023438 204.878906 L 192.511719 204.878906 L 192.511719 191.085938 L 176.421875 191.085938 L 176.421875 218.804688 L 198.855469 218.804688 L 198.855469 215.367188 " fill-opacity="1" fill-rule="nonzero"/></g><g clip-path="url(#3d61f5c05d)"><path fill="#ffc500" d="M 195.390625 156.269531 L 195.390625 176.894531 L 186.277344 176.894531 L 186.277344 166.535156 L 182.789062 166.535156 L 182.789062 180.328125 L 198.878906 180.328125 L 198.878906 156.269531 L 195.390625 156.269531 " fill-opacity="1" fill-rule="nonzero"/></g><g clip-path="url(#5afbcbc500)"><path fill="#ffc500" d="M 198.832031 184.097656 L 179.890625 184.097656 L 179.890625 163.25 L 189 163.25 L 189 173.609375 L 192.488281 173.609375 L 192.488281 159.816406 L 176.402344 159.816406 L 176.402344 187.535156 L 198.832031 187.535156 L 198.832031 184.097656 " fill-opacity="1" fill-rule="nonzero"/></g><g clip-path="url(#a2c552b02f)"><path fill="#ffc500" d="M 195.390625 125 L 195.390625 145.625 L 186.277344 145.625 L 186.277344 135.269531 L 182.789062 135.269531 L 182.789062 149.0625 L 198.878906 149.0625 L 198.878906 125 L 195.390625 125 " fill-opacity="1" fill-rule="nonzero"/></g><g clip-path="url(#614a15aa76)"><path fill="#ffc500" d="M 198.832031 152.832031 L 179.890625 152.832031 L 179.890625 131.984375 L 189 131.984375 L 189 142.34375 L 192.488281 142.34375 L 192.488281 128.546875 L 176.402344 128.546875 L 176.402344 156.269531 L 198.832031 156.269531 L 198.832031 152.832031 " fill-opacity="1" fill-rule="nonzero"/></g><g clip-path="url(#55ca0cd8d3)"><path fill="#ffc500" d="M 195.410156 93.730469 L 195.410156 114.359375 L 186.300781 114.359375 L 186.300781 104 L 182.816406 104 L 182.816406 117.792969 L 198.898438 117.792969 L 198.898438 93.730469 L 195.410156 93.730469 " fill-opacity="1" fill-rule="nonzero"/></g><g clip-path="url(#2566648750)"><path fill="#ffc500" d="M 198.855469 121.5625 L 179.910156 121.5625 L 179.910156 100.714844 L 189.023438 100.714844 L 189.023438 111.074219 L 192.511719 111.074219 L 192.511719 97.277344 L 176.421875 97.277344 L 176.421875 125 L 198.855469 125 L 198.855469 121.5625 " fill-opacity="1" fill-rule="nonzero"/></g><g clip-path="url(#06a6c601cd)"><path fill="#ffc500" d="M 195.410156 62.460938 L 195.410156 83.089844 L 186.300781 83.089844 L 186.300781 72.734375 L 182.816406 72.734375 L 182.816406 86.523438 L 198.898438 86.523438 L 198.898438 62.460938 L 195.410156 62.460938 " fill-opacity="1" fill-rule="nonzero"/></g><g clip-path="url(#2cccd531b4)"><path fill="#ffc500" d="M 198.855469 90.296875 L 179.910156 90.296875 L 179.910156 69.449219 L 189.023438 69.449219 L 189.023438 79.804688 L 192.511719 79.804688 L 192.511719 66.011719 L 176.421875 66.011719 L 176.421875 93.730469 L 198.855469 93.730469 L 198.855469 90.296875 " fill-opacity="1" fill-rule="nonzero"/></g><g clip-path="url(#d9da45aa86)"><path fill="#ffc500" d="M 195.390625 31.195312 L 195.390625 51.820312 L 186.277344 51.820312 L 186.277344 41.464844 L 182.789062 41.464844 L 182.789062 55.257812 L 198.878906 55.257812 L 198.878906 31.195312 L 195.390625 31.195312 " fill-opacity="1" fill-rule="nonzero"/></g><g clip-path="url(#32fd30da89)"><path fill="#ffc500" d="M 198.832031 59.027344 L 179.890625 59.027344 L 179.890625 38.179688 L 189 38.179688 L 189 48.535156 L 192.488281 48.535156 L 192.488281 34.742188 L 176.402344 34.742188 L 176.402344 62.460938 L 198.832031 62.460938 L 198.832031 59.027344 " fill-opacity="1" fill-rule="nonzero"/></g><g clip-path="url(#248800c90a)"><path fill="#ffc500" d="M 195.390625 -0.0742188 L 195.390625 20.550781 L 186.277344 20.550781 L 186.277344 10.195312 L 182.789062 10.195312 L 182.789062 23.988281 L 198.878906 23.988281 L 198.878906 -0.0742188 L 195.390625 -0.0742188 " fill-opacity="1" fill-rule="nonzero"/></g><g clip-path="url(#4a66ceb319)"><path fill="#ffc500" d="M 198.832031 27.757812 L 179.890625 27.757812 L 179.890625 6.914062 L 189 6.914062 L 189 17.269531 L 192.488281 17.269531 L 192.488281 3.472656 L 176.402344 3.472656 L 176.402344 31.195312 L 198.832031 31.195312 L 198.832031 27.757812 " fill-opacity="1" fill-rule="nonzero"/></g></svg>