<?xml version="1.0" encoding="utf-8"?>
<!-- Generator: Adobe Illustrator 27.0.0, SVG Export Plug-In . SVG Version: 6.00 Build 0)  -->
<svg version="1.1" id="Capa_1" xmlns="http://www.w3.org/2000/svg" xmlns:xlink="http://www.w3.org/1999/xlink" x="0px" y="0px"
	 viewBox="0 0 465.7 465.7" style="enable-background:new 0 0 465.7 465.7;" xml:space="preserve">
<style type="text/css">
	.st0{fill:#FFD02E;}
</style>
<g>
	<path class="st0" d="M393.5,155.3h-15.1v-27c0-3.6-2.9-6.5-6.5-6.5h-9.7v-27c0-3.6-2.9-6.5-6.5-6.5h-28.6V38.5
		c0-3.6-2.9-6.5-6.5-6.5H284v-4.6c0-2.3-1.2-4.4-3.2-5.6L245.5,0.9c-1-0.6-2.1-0.9-3.3-0.9h-18.6c-1.2,0-2.3,0.3-3.3,0.9l-35.3,20.9
		c-2,1.2-3.2,3.3-3.2,5.6V32h-36.7c-3.6,0-6.5,2.9-6.5,6.5v49.9H110c-3.6,0-6.5,2.9-6.5,6.5v27h-9.7c-3.6,0-6.5,2.9-6.5,6.5v27H72.2
		c-3.6,0-6.5,2.9-6.5,6.5s2.9,6.5,6.5,6.5h12.6v290.9c0,3.6,2.9,6.5,6.5,6.5h82.1c3.6,0,6.5-2.9,6.5-6.5V283h2.3
		c3.6,0,6.5-2.9,6.5-6.5s-2.9-6.5-6.5-6.5h-2.3v-9.8c0-29.2,23.8-53,53-53c14.2,0,27.5,5.5,37.5,15.5c10,10,15.5,23.3,15.5,37.5v9.8
		h-2.3c-3.6,0-6.5,2.9-6.5,6.5s2.9,6.5,6.5,6.5h2.3v176.2c0,3.6,2.9,6.5,6.5,6.5h82.1c3.6,0,6.5-2.9,6.5-6.5V168.3h12.6
		c3.6,0,6.5-2.9,6.5-6.5S397.1,155.3,393.5,155.3z M194.7,31.1L225.3,13h15L271,31.1V32h-76.3L194.7,31.1L194.7,31.1z M151.6,45
		h162.6v43.4H151.6V45z M116.5,101.4h232.7v20.5H116.5V101.4z M100.3,134.9h265.1v20.5H100.3V134.9z M97.8,452.7V339h69.1v113.7
		H97.8z M166.9,326H97.8v-43h69.1V326z M279.5,213.5c-12.5-12.5-29-19.3-46.7-19.3c-36.4,0-66,29.6-66,66v9.8H97.8V168.3h270.1V270
		h-69.1v-9.8C298.8,242.6,292,226,279.5,213.5z M367.9,283v43h-69.1v-43H367.9z M298.8,452.7V339h69.1v113.7H298.8z"/>
	<path class="st0" d="M132.3,198c-11.9,0-21.5,9.6-21.5,21.5s9.6,21.5,21.5,21.5s21.5-9.6,21.5-21.5S144.2,198,132.3,198z
		 M132.3,228c-4.7,0-8.5-3.8-8.5-8.5s3.8-8.5,8.5-8.5s8.5,3.8,8.5,8.5S137,228,132.3,228z"/>
	<path class="st0" d="M170,50.7c-8.8,0-16,7.2-16,16s7.2,16,16,16s16-7.2,16-16S178.8,50.7,170,50.7z M170,69.7c-1.7,0-3-1.3-3-3
		s1.3-3,3-3s3,1.3,3,3S171.7,69.7,170,69.7z"/>
	<path class="st0" d="M295.7,50.7c-8.8,0-16,7.2-16,16s7.2,16,16,16s16-7.2,16-16S304.5,50.7,295.7,50.7z M295.7,69.7
		c-1.7,0-3-1.3-3-3s1.3-3,3-3s3,1.3,3,3S297.4,69.7,295.7,69.7z"/>
	<path class="st0" d="M333.4,241c11.9,0,21.5-9.6,21.5-21.5s-9.6-21.5-21.5-21.5s-21.5,9.6-21.5,21.5S321.5,241,333.4,241z
		 M333.4,211c4.7,0,8.5,3.8,8.5,8.5s-3.8,8.5-8.5,8.5s-8.5-3.8-8.5-8.5S328.7,211,333.4,211z"/>
</g>
</svg>
