<svg xmlns="http://www.w3.org/2000/svg" xmlns:xlink="http://www.w3.org/1999/xlink" width="500" zoomAndPan="magnify" viewBox="0 0 375 374.999991" height="500" preserveAspectRatio="xMidYMid meet" version="1.0"><defs><clipPath id="223e48a497"><path d="M 181.6875 369 L 192.9375 369 L 192.9375 375 L 181.6875 375 Z M 181.6875 369 " clip-rule="nonzero"/></clipPath><clipPath id="46b793b8c9"><path d="M 181.6875 343 L 192.9375 343 L 192.9375 355 L 181.6875 355 Z M 181.6875 343 " clip-rule="nonzero"/></clipPath><clipPath id="f668a4c5de"><path d="M 181.6875 316 L 192.9375 316 L 192.9375 328 L 181.6875 328 Z M 181.6875 316 " clip-rule="nonzero"/></clipPath><clipPath id="93c495c2c8"><path d="M 181.6875 289 L 192.9375 289 L 192.9375 301 L 181.6875 301 Z M 181.6875 289 " clip-rule="nonzero"/></clipPath><clipPath id="4c24097d05"><path d="M 181.6875 262 L 192.9375 262 L 192.9375 274 L 181.6875 274 Z M 181.6875 262 " clip-rule="nonzero"/></clipPath><clipPath id="ad624b5707"><path d="M 181.6875 235 L 192.9375 235 L 192.9375 247 L 181.6875 247 Z M 181.6875 235 " clip-rule="nonzero"/></clipPath><clipPath id="794ecf14f1"><path d="M 181.6875 208 L 192.9375 208 L 192.9375 221 L 181.6875 221 Z M 181.6875 208 " clip-rule="nonzero"/></clipPath><clipPath id="b87401b1c4"><path d="M 181.6875 181 L 192.9375 181 L 192.9375 194 L 181.6875 194 Z M 181.6875 181 " clip-rule="nonzero"/></clipPath><clipPath id="33552cbffd"><path d="M 181.6875 155 L 192.9375 155 L 192.9375 167 L 181.6875 167 Z M 181.6875 155 " clip-rule="nonzero"/></clipPath><clipPath id="d413d0f73c"><path d="M 181.6875 128 L 192.9375 128 L 192.9375 140 L 181.6875 140 Z M 181.6875 128 " clip-rule="nonzero"/></clipPath><clipPath id="6df291dcc5"><path d="M 181.6875 101 L 192.9375 101 L 192.9375 113 L 181.6875 113 Z M 181.6875 101 " clip-rule="nonzero"/></clipPath><clipPath id="aaef9e1d10"><path d="M 181.6875 74 L 192.9375 74 L 192.9375 86 L 181.6875 86 Z M 181.6875 74 " clip-rule="nonzero"/></clipPath><clipPath id="217cf2584e"><path d="M 181.6875 47 L 192.9375 47 L 192.9375 60 L 181.6875 60 Z M 181.6875 47 " clip-rule="nonzero"/></clipPath><clipPath id="7ce821a10c"><path d="M 181.6875 20 L 192.9375 20 L 192.9375 33 L 181.6875 33 Z M 181.6875 20 " clip-rule="nonzero"/></clipPath><clipPath id="b374b21df5"><path d="M 181.6875 0 L 192.9375 0 L 192.9375 6 L 181.6875 6 Z M 181.6875 0 " clip-rule="nonzero"/></clipPath></defs><g clip-path="url(#223e48a497)"><path fill="#ffc500" d="M 187.3125 369.839844 C 190.339844 369.839844 192.796875 372.371094 192.796875 375.496094 C 192.796875 378.617188 190.339844 381.148438 187.3125 381.148438 C 184.285156 381.148438 181.832031 378.617188 181.832031 375.496094 C 181.832031 372.371094 184.285156 369.839844 187.3125 369.839844 " fill-opacity="1" fill-rule="nonzero"/></g><g clip-path="url(#46b793b8c9)"><path fill="#ffc500" d="M 187.3125 343.003906 C 190.339844 343.003906 192.796875 345.539062 192.796875 348.660156 C 192.796875 351.78125 190.339844 354.3125 187.3125 354.3125 C 184.285156 354.3125 181.832031 351.78125 181.832031 348.660156 C 181.832031 345.539062 184.285156 343.003906 187.3125 343.003906 " fill-opacity="1" fill-rule="nonzero"/></g><g clip-path="url(#f668a4c5de)"><path fill="#ffc500" d="M 187.3125 316.171875 C 190.339844 316.171875 192.796875 318.703125 192.796875 321.828125 C 192.796875 324.945312 190.339844 327.476562 187.3125 327.476562 C 184.285156 327.476562 181.832031 324.945312 181.832031 321.828125 C 181.832031 318.703125 184.285156 316.171875 187.3125 316.171875 " fill-opacity="1" fill-rule="nonzero"/></g><g clip-path="url(#93c495c2c8)"><path fill="#ffc500" d="M 187.3125 289.335938 C 190.339844 289.335938 192.796875 291.867188 192.796875 294.992188 C 192.796875 298.113281 190.339844 300.644531 187.3125 300.644531 C 184.285156 300.644531 181.832031 298.113281 181.832031 294.992188 C 181.832031 291.867188 184.285156 289.335938 187.3125 289.335938 " fill-opacity="1" fill-rule="nonzero"/></g><g clip-path="url(#4c24097d05)"><path fill="#ffc500" d="M 187.3125 262.5 C 190.339844 262.5 192.796875 265.03125 192.796875 268.15625 C 192.796875 271.277344 190.339844 273.808594 187.3125 273.808594 C 184.285156 273.808594 181.832031 271.277344 181.832031 268.15625 C 181.832031 265.03125 184.285156 262.5 187.3125 262.5 " fill-opacity="1" fill-rule="nonzero"/></g><g clip-path="url(#ad624b5707)"><path fill="#ffc500" d="M 187.3125 235.664062 C 190.339844 235.664062 192.796875 238.199219 192.796875 241.320312 C 192.796875 244.441406 190.339844 246.972656 187.3125 246.972656 C 184.285156 246.972656 181.832031 244.441406 181.832031 241.320312 C 181.832031 238.199219 184.285156 235.664062 187.3125 235.664062 " fill-opacity="1" fill-rule="nonzero"/></g><g clip-path="url(#794ecf14f1)"><path fill="#ffc500" d="M 187.3125 208.832031 C 190.339844 208.832031 192.796875 211.363281 192.796875 214.484375 C 192.796875 217.605469 190.339844 220.140625 187.3125 220.140625 C 184.285156 220.140625 181.832031 217.605469 181.832031 214.484375 C 181.832031 211.363281 184.285156 208.832031 187.3125 208.832031 " fill-opacity="1" fill-rule="nonzero"/></g><g clip-path="url(#b87401b1c4)"><path fill="#ffc500" d="M 187.3125 181.996094 C 190.339844 181.996094 192.796875 184.527344 192.796875 187.648438 C 192.796875 190.773438 190.339844 193.304688 187.3125 193.304688 C 184.285156 193.304688 181.832031 190.773438 181.832031 187.648438 C 181.832031 184.527344 184.285156 181.996094 187.3125 181.996094 " fill-opacity="1" fill-rule="nonzero"/></g><g clip-path="url(#33552cbffd)"><path fill="#ffc500" d="M 187.3125 155.160156 C 190.339844 155.160156 192.796875 157.691406 192.796875 160.8125 C 192.796875 163.9375 190.339844 166.46875 187.3125 166.46875 C 184.285156 166.46875 181.832031 163.9375 181.832031 160.8125 C 181.832031 157.691406 184.285156 155.160156 187.3125 155.160156 " fill-opacity="1" fill-rule="nonzero"/></g><g clip-path="url(#d413d0f73c)"><path fill="#ffc500" d="M 187.3125 128.328125 C 190.339844 128.328125 192.796875 130.855469 192.796875 133.976562 C 192.796875 137.101562 190.339844 139.632812 187.3125 139.632812 C 184.285156 139.632812 181.832031 137.101562 181.832031 133.976562 C 181.832031 130.855469 184.285156 128.328125 187.3125 128.328125 " fill-opacity="1" fill-rule="nonzero"/></g><g clip-path="url(#6df291dcc5)"><path fill="#ffc500" d="M 187.3125 101.492188 C 190.339844 101.492188 192.796875 104.019531 192.796875 107.144531 C 192.796875 110.265625 190.339844 112.796875 187.3125 112.796875 C 184.285156 112.796875 181.832031 110.265625 181.832031 107.144531 C 181.832031 104.019531 184.285156 101.492188 187.3125 101.492188 " fill-opacity="1" fill-rule="nonzero"/></g><g clip-path="url(#aaef9e1d10)"><path fill="#ffc500" d="M 187.3125 74.65625 C 190.339844 74.65625 192.796875 77.183594 192.796875 80.308594 C 192.796875 83.429688 190.339844 85.960938 187.3125 85.960938 C 184.285156 85.960938 181.832031 83.429688 181.832031 80.308594 C 181.832031 77.183594 184.285156 74.65625 187.3125 74.65625 " fill-opacity="1" fill-rule="nonzero"/></g><g clip-path="url(#217cf2584e)"><path fill="#ffc500" d="M 187.3125 47.820312 C 190.339844 47.820312 192.796875 50.351562 192.796875 53.472656 C 192.796875 56.59375 190.339844 59.125 187.3125 59.125 C 184.285156 59.125 181.832031 56.59375 181.832031 53.472656 C 181.832031 50.351562 184.285156 47.820312 187.3125 47.820312 " fill-opacity="1" fill-rule="nonzero"/></g><g clip-path="url(#7ce821a10c)"><path fill="#ffc500" d="M 187.3125 20.984375 C 190.339844 20.984375 192.796875 23.515625 192.796875 26.640625 C 192.796875 29.761719 190.339844 32.292969 187.3125 32.292969 C 184.285156 32.292969 181.832031 29.761719 181.832031 26.640625 C 181.832031 23.515625 184.285156 20.984375 187.3125 20.984375 " fill-opacity="1" fill-rule="nonzero"/></g><g clip-path="url(#b374b21df5)"><path fill="#ffc500" d="M 187.3125 -5.851562 C 190.339844 -5.851562 192.796875 -3.320312 192.796875 -0.195312 C 192.796875 2.925781 190.339844 5.457031 187.3125 5.457031 C 184.285156 5.457031 181.832031 2.925781 181.832031 -0.195312 C 181.832031 -3.320312 184.285156 -5.851562 187.3125 -5.851562 " fill-opacity="1" fill-rule="nonzero"/></g></svg>