<svg xmlns="http://www.w3.org/2000/svg" xmlns:xlink="http://www.w3.org/1999/xlink" width="500" zoomAndPan="magnify" viewBox="0 0 375 374.999991" height="500" preserveAspectRatio="xMidYMid meet" version="1.0"><path fill="#ffc500" d="M 181.347656 0.296875 C 184.804688 2.671875 187.613281 5.945312 189.515625 9.632812 C 191.417969 13.320312 192.539062 17.367188 193.027344 21.453125 C 193.519531 25.535156 193.425781 29.675781 192.828125 33.738281 C 192.523438 35.773438 192.105469 37.789062 191.542969 39.765625 C 191 41.746094 190.347656 43.6875 189.480469 45.578125 C 188.609375 47.464844 187.488281 49.265625 185.984375 50.777344 C 185.621094 51.152344 185.203125 51.496094 184.804688 51.835938 C 184.40625 52.160156 183.972656 52.46875 183.519531 52.753906 C 183.066406 53.042969 182.578125 53.292969 182.070312 53.511719 C 181.5625 53.726562 181.019531 53.871094 180.460938 53.925781 C 180.1875 53.960938 179.898438 53.960938 179.609375 53.960938 C 179.320312 53.941406 179.046875 53.925781 178.757812 53.851562 C 178.46875 53.816406 178.214844 53.707031 177.941406 53.636719 C 177.816406 53.582031 177.6875 53.527344 177.5625 53.476562 C 177.433594 53.421875 177.308594 53.367188 177.179688 53.292969 L 176.820312 53.097656 C 176.691406 53.023438 176.566406 52.933594 176.4375 52.84375 C 176.203125 52.648438 175.96875 52.414062 175.804688 52.144531 C 175.625 51.875 175.535156 51.566406 175.441406 51.28125 C 175.386719 50.972656 175.351562 50.648438 175.40625 50.34375 C 175.480469 49.714844 175.785156 49.121094 176.257812 48.6875 C 176.367188 48.582031 176.511719 48.492188 176.636719 48.402344 C 176.765625 48.328125 176.929688 48.238281 177.054688 48.1875 C 177.179688 48.132812 177.308594 48.078125 177.433594 48.023438 L 177.832031 47.898438 C 178.882812 47.59375 179.988281 47.503906 181.058594 47.554688 C 183.195312 47.683594 185.257812 48.382812 187.070312 49.480469 C 188.882812 50.578125 190.457031 52.125 191.453125 54.015625 C 191.960938 54.949219 192.339844 55.9375 192.59375 56.964844 C 192.847656 57.988281 192.972656 59.035156 192.992188 60.078125 C 193.046875 62.164062 192.703125 64.234375 192.160156 66.230469 C 191.617188 68.226562 190.890625 70.152344 190.078125 72.023438 C 189.261719 73.894531 188.375 75.726562 187.394531 77.527344 C 185.441406 81.125 183.195312 84.507812 181.164062 88.015625 C 180.152344 89.761719 179.210938 91.542969 178.394531 93.375 C 177.976562 94.292969 177.617188 95.230469 177.308594 96.183594 C 177.144531 96.652344 176.980469 97.136719 176.835938 97.605469 L 176.457031 99.0625 L 176.257812 99.78125 C 176.203125 100.03125 176.167969 100.265625 176.113281 100.519531 L 175.824219 101.992188 C 175.769531 102.246094 175.75 102.480469 175.714844 102.730469 L 175.535156 104.207031 C 175.496094 104.457031 175.460938 104.710938 175.460938 104.960938 L 175.371094 106.457031 C 175.351562 106.707031 175.335938 106.957031 175.335938 107.210938 L 175.335938 109.476562 C 175.351562 109.980469 175.386719 110.484375 175.40625 110.988281 C 175.441406 111.996094 175.570312 112.984375 175.660156 113.992188 C 175.695312 114.496094 175.785156 114.980469 175.878906 115.484375 L 176.113281 116.980469 L 176.421875 118.453125 C 176.53125 118.941406 176.621094 119.445312 176.765625 119.929688 C 177.035156 120.902344 177.273438 121.871094 177.578125 122.824219 C 178.792969 126.65625 180.40625 130.382812 182.398438 133.871094 C 182.90625 134.734375 183.449219 135.582031 184.082031 136.335938 C 184.390625 136.714844 184.734375 137.074219 185.078125 137.414062 C 185.441406 137.738281 185.820312 138.046875 186.21875 138.296875 C 186.636719 138.550781 187.050781 138.765625 187.503906 138.910156 C 187.722656 139 187.957031 139.035156 188.191406 139.089844 C 188.410156 139.125 188.644531 139.160156 188.863281 139.144531 C 189.769531 139.125 190.691406 138.746094 191.417969 138.171875 C 192.140625 137.597656 192.722656 136.785156 192.828125 135.921875 C 192.882812 135.492188 192.8125 135.078125 192.613281 134.679688 C 192.414062 134.304688 192.125 133.960938 191.742188 133.726562 C 191 133.242188 190.023438 133.097656 189.0625 133.171875 C 188.589844 133.207031 188.101562 133.296875 187.632812 133.421875 C 187.394531 133.476562 187.160156 133.566406 186.941406 133.636719 L 186.253906 133.90625 C 184.425781 134.679688 182.777344 135.851562 181.382812 137.253906 C 179.988281 138.675781 178.847656 140.332031 177.960938 142.109375 C 177.074219 143.890625 176.421875 145.800781 176.003906 147.742188 C 175.585938 149.703125 175.40625 151.699219 175.460938 153.695312 C 175.570312 157.707031 176.457031 161.667969 177.671875 165.5 C 178.882812 169.347656 180.441406 173.089844 181.910156 176.886719 C 183.394531 180.664062 184.769531 184.511719 185.675781 188.507812 C 186.582031 192.484375 187.015625 196.640625 186.4375 200.722656 C 186.292969 201.746094 186.109375 202.753906 185.839844 203.746094 C 185.730469 204.25 185.566406 204.734375 185.421875 205.21875 C 185.257812 205.707031 185.113281 206.191406 184.933594 206.675781 C 184.246094 208.601562 183.410156 210.472656 182.523438 212.308594 C 180.75 215.976562 178.757812 219.523438 177.253906 223.246094 C 176.492188 225.097656 175.878906 227.023438 175.480469 228.984375 C 175.296875 229.957031 175.171875 230.945312 175.117188 231.953125 C 175.082031 232.941406 175.082031 233.933594 175.207031 234.921875 C 175.316406 235.910156 175.515625 236.882812 175.785156 237.835938 C 176.058594 238.789062 176.421875 239.726562 176.820312 240.625 C 177.632812 242.441406 178.703125 244.152344 179.863281 245.804688 C 182.199219 249.097656 184.949219 252.085938 187.488281 255.304688 C 188.738281 256.90625 189.96875 258.558594 191 260.339844 C 192.03125 262.105469 192.957031 263.957031 193.679688 265.882812 C 196.632812 273.546875 197.011719 282.164062 194.621094 290.042969 C 194.007812 292.003906 193.136719 293.945312 191.707031 295.546875 C 191 296.339844 190.132812 297.003906 189.1875 297.507812 C 188.230469 298.011719 187.144531 298.300781 186.039062 298.28125 C 184.933594 298.28125 183.847656 297.976562 182.90625 297.402344 C 182.433594 297.113281 182 296.769531 181.636719 296.320312 C 181.273438 295.871094 181.003906 295.351562 180.894531 294.757812 C 180.839844 294.46875 180.839844 294.164062 180.875 293.875 C 180.914062 293.585938 180.984375 293.300781 181.09375 293.027344 C 181.203125 292.757812 181.347656 292.507812 181.511719 292.273438 C 181.671875 292.039062 181.871094 291.824219 182.089844 291.644531 C 182.523438 291.265625 183.03125 290.976562 183.574219 290.816406 C 184.117188 290.65625 184.699219 290.601562 185.257812 290.636719 C 185.277344 290.636719 185.296875 290.636719 185.3125 290.65625 C 186.472656 290.941406 187.578125 291.410156 188.589844 292.039062 C 189.605469 292.667969 190.511719 293.441406 191.289062 294.324219 C 192.847656 296.105469 193.917969 298.246094 194.585938 300.460938 C 195.257812 302.691406 195.5625 304.992188 195.601562 307.296875 C 195.617188 309.597656 195.363281 311.917969 194.820312 314.167969 C 193.753906 318.648438 191.796875 322.855469 189.625 326.851562 C 187.449219 330.863281 185.042969 334.710938 182.921875 338.707031 C 181.855469 340.703125 180.804688 342.71875 179.824219 344.75 C 178.847656 346.785156 177.960938 348.851562 177.308594 350.992188 C 176.65625 353.117188 176.222656 355.308594 176.238281 357.523438 C 176.238281 359.71875 176.691406 361.894531 177.578125 363.910156 L 177.925781 364.648438 C 178.03125 364.898438 178.160156 365.113281 178.304688 365.332031 C 178.59375 365.761719 178.921875 366.160156 179.320312 366.480469 C 179.5 366.644531 179.734375 366.789062 179.953125 366.949219 C 180.167969 367.113281 180.40625 367.238281 180.621094 367.382812 C 180.859375 367.507812 181.09375 367.632812 181.328125 367.742188 C 181.582031 367.832031 181.816406 367.957031 182.070312 368.011719 C 183.066406 368.335938 184.136719 368.460938 185.1875 368.316406 C 186.21875 368.171875 187.234375 367.8125 188.121094 367.257812 C 188.230469 367.203125 188.339844 367.113281 188.445312 367.039062 L 188.773438 366.804688 C 188.988281 366.644531 189.1875 366.464844 189.386719 366.300781 C 189.785156 365.960938 190.132812 365.566406 190.402344 365.152344 C 190.980469 364.304688 191.289062 363.296875 191.253906 362.308594 C 191.234375 361.824219 191.144531 361.320312 190.964844 360.871094 C 190.78125 360.417969 190.511719 359.988281 190.183594 359.628906 C 189.515625 358.910156 188.589844 358.421875 187.578125 358.226562 L 187.648438 358.242188 C 187.105469 358.1875 186.597656 358.386719 186.144531 358.746094 C 185.695312 359.105469 185.332031 359.628906 185.058594 360.1875 C 184.789062 360.761719 184.625 361.375 184.550781 362.003906 C 184.480469 362.632812 184.535156 363.261719 184.699219 363.820312 C 184.804688 364.179688 184.605469 364.558594 184.246094 364.664062 C 183.882812 364.773438 183.503906 364.574219 183.394531 364.214844 C 183.140625 363.425781 183.105469 362.613281 183.195312 361.839844 C 183.285156 361.066406 183.484375 360.3125 183.828125 359.59375 C 184.171875 358.890625 184.625 358.207031 185.296875 357.683594 C 185.621094 357.414062 186 357.199219 186.4375 357.054688 C 186.851562 356.910156 187.324219 356.859375 187.757812 356.894531 C 187.777344 356.894531 187.8125 356.894531 187.832031 356.910156 C 189.0625 357.164062 190.257812 357.773438 191.128906 358.730469 C 191.5625 359.214844 191.90625 359.773438 192.140625 360.367188 C 192.375 360.960938 192.503906 361.605469 192.523438 362.238281 C 192.558594 363.515625 192.140625 364.773438 191.433594 365.816406 C 191.089844 366.339844 190.65625 366.804688 190.203125 367.203125 C 189.96875 367.398438 189.75 367.597656 189.496094 367.777344 L 189.117188 368.046875 C 188.988281 368.136719 188.863281 368.226562 188.738281 368.300781 C 187.703125 368.929688 186.507812 369.378906 185.277344 369.523438 C 184.046875 369.683594 182.796875 369.523438 181.636719 369.144531 C 181.347656 369.054688 181.058594 368.929688 180.785156 368.820312 C 180.515625 368.695312 180.242188 368.550781 179.96875 368.40625 C 179.71875 368.246094 179.445312 368.101562 179.191406 367.921875 C 178.9375 367.742188 178.703125 367.578125 178.449219 367.363281 C 177.976562 366.949219 177.5625 366.480469 177.21875 365.960938 C 177.054688 365.707031 176.890625 365.421875 176.765625 365.152344 L 176.402344 364.359375 C 175.460938 362.199219 174.972656 359.84375 174.988281 357.503906 C 174.988281 355.167969 175.460938 352.847656 176.148438 350.652344 C 176.835938 348.4375 177.761719 346.332031 178.757812 344.28125 C 179.753906 342.230469 180.820312 340.21875 181.890625 338.203125 C 184.046875 334.171875 186.472656 330.324219 188.628906 326.347656 C 190.800781 322.390625 192.722656 318.269531 193.769531 313.914062 C 194.316406 311.757812 194.550781 309.527344 194.53125 307.296875 C 194.515625 305.066406 194.222656 302.832031 193.570312 300.710938 C 192.9375 298.589844 191.941406 296.574219 190.492188 294.917969 C 189.769531 294.089844 188.9375 293.371094 188.011719 292.796875 C 187.089844 292.21875 186.074219 291.789062 185.003906 291.519531 L 185.078125 291.535156 C 184.625 291.5 184.171875 291.535156 183.738281 291.660156 C 183.304688 291.789062 182.90625 292.003906 182.578125 292.308594 C 181.910156 292.886719 181.527344 293.765625 181.671875 294.613281 C 181.816406 295.457031 182.453125 296.175781 183.265625 296.664062 C 184.0625 297.148438 185.003906 297.417969 185.945312 297.417969 C 187.847656 297.453125 189.660156 296.410156 190.964844 294.988281 C 192.269531 293.53125 193.101562 291.699219 193.699219 289.808594 C 196.035156 282.144531 195.671875 273.691406 192.792969 266.207031 C 192.085938 264.335938 191.179688 262.519531 190.167969 260.792969 C 189.152344 259.046875 187.957031 257.425781 186.707031 255.84375 C 184.207031 252.660156 181.457031 249.65625 179.066406 246.308594 C 177.871094 244.636719 176.78125 242.875 175.949219 241.003906 C 175.535156 240.066406 175.152344 239.09375 174.882812 238.085938 C 174.589844 237.097656 174.390625 236.074219 174.285156 235.046875 C 174.15625 234.023438 174.140625 232.980469 174.175781 231.953125 C 174.230469 230.929688 174.375 229.902344 174.554688 228.878906 C 174.953125 226.863281 175.605469 224.882812 176.382812 222.996094 C 177.925781 219.199219 179.933594 215.65625 181.691406 212.003906 C 182.578125 210.183594 183.394531 208.351562 184.082031 206.445312 C 184.261719 205.976562 184.40625 205.488281 184.570312 205.023438 C 184.714844 204.535156 184.859375 204.070312 184.988281 203.582031 C 185.257812 202.613281 185.421875 201.640625 185.566406 200.652344 C 186.109375 196.691406 185.695312 192.628906 184.804688 188.722656 C 183.902344 184.800781 182.523438 180.988281 181.058594 177.210938 C 179.589844 173.433594 178.03125 169.671875 176.78125 165.785156 C 175.550781 161.898438 174.628906 157.871094 174.519531 153.75 C 174.445312 151.699219 174.644531 149.632812 175.082031 147.617188 C 175.515625 145.601562 176.167969 143.640625 177.089844 141.789062 C 178.015625 139.933594 179.191406 138.207031 180.660156 136.714844 C 182.109375 135.222656 183.863281 133.996094 185.785156 133.171875 L 186.507812 132.882812 C 186.761719 132.792969 187.015625 132.703125 187.269531 132.648438 C 187.792969 132.503906 188.320312 132.414062 188.863281 132.378906 C 189.40625 132.34375 189.949219 132.359375 190.492188 132.449219 C 191.035156 132.558594 191.578125 132.738281 192.070312 133.0625 C 192.558594 133.386719 192.957031 133.816406 193.226562 134.339844 C 193.5 134.863281 193.609375 135.472656 193.519531 136.046875 C 193.445312 136.625 193.210938 137.164062 192.921875 137.632812 C 192.613281 138.097656 192.230469 138.511719 191.796875 138.855469 C 190.945312 139.539062 189.878906 139.988281 188.738281 140.007812 C 188.445312 140.023438 188.15625 139.988281 187.886719 139.933594 C 187.613281 139.863281 187.34375 139.828125 187.089844 139.71875 C 186.5625 139.558594 186.074219 139.304688 185.621094 139.015625 C 185.167969 138.730469 184.75 138.386719 184.351562 138.046875 C 183.972656 137.6875 183.59375 137.289062 183.265625 136.894531 C 182.597656 136.085938 182.035156 135.203125 181.511719 134.320312 C 179.464844 130.757812 177.832031 127 176.601562 123.097656 C 176.277344 122.125 176.023438 121.136719 175.769531 120.144531 C 175.625 119.660156 175.535156 119.15625 175.425781 118.652344 L 175.097656 117.160156 L 174.84375 115.648438 C 174.773438 115.144531 174.664062 114.640625 174.628906 114.136719 C 174.519531 113.113281 174.390625 112.105469 174.355469 111.078125 C 174.339844 110.574219 174.300781 110.054688 174.285156 109.550781 L 174.285156 107.246094 C 174.285156 106.996094 174.320312 106.742188 174.320312 106.472656 L 174.410156 104.945312 C 174.429688 104.691406 174.464844 104.441406 174.484375 104.171875 L 174.574219 103.414062 L 174.664062 102.660156 C 174.699219 102.40625 174.71875 102.15625 174.773438 101.902344 L 175.0625 100.390625 C 175.117188 100.140625 175.152344 99.890625 175.207031 99.636719 L 175.40625 98.898438 L 175.804688 97.40625 C 175.949219 96.921875 176.132812 96.433594 176.292969 95.949219 C 176.601562 94.976562 176.980469 94.007812 177.398438 93.070312 C 178.230469 91.199219 179.191406 89.382812 180.1875 87.601562 C 182.214844 84.058594 184.460938 80.675781 186.382812 77.113281 C 187.324219 75.351562 188.210938 73.515625 189.007812 71.664062 C 189.804688 69.808594 190.511719 67.9375 191.019531 65.996094 C 191.527344 64.070312 191.851562 62.09375 191.796875 60.132812 C 191.777344 59.140625 191.652344 58.171875 191.417969 57.234375 C 191.179688 56.300781 190.835938 55.382812 190.367188 54.519531 C 189.460938 52.808594 188.03125 51.40625 186.363281 50.378906 C 184.699219 49.371094 182.777344 48.726562 180.839844 48.617188 C 179.878906 48.5625 178.902344 48.652344 177.996094 48.921875 L 177.671875 49.03125 L 177.34375 49.15625 C 177.234375 49.191406 177.164062 49.246094 177.074219 49.300781 C 177 49.355469 176.910156 49.410156 176.855469 49.480469 C 176.582031 49.734375 176.382812 50.09375 176.347656 50.488281 C 176.3125 50.6875 176.347656 50.882812 176.367188 51.0625 C 176.421875 51.242188 176.476562 51.441406 176.582031 51.585938 C 176.675781 51.746094 176.820312 51.890625 176.964844 52.015625 C 177.054688 52.070312 177.109375 52.125 177.21875 52.179688 L 177.527344 52.339844 C 177.632812 52.394531 177.742188 52.449219 177.851562 52.484375 L 178.175781 52.609375 C 178.394531 52.664062 178.613281 52.753906 178.847656 52.792969 C 179.066406 52.84375 179.300781 52.84375 179.519531 52.882812 C 179.734375 52.882812 179.96875 52.882812 180.1875 52.84375 C 180.640625 52.792969 181.09375 52.664062 181.511719 52.484375 C 181.945312 52.304688 182.359375 52.089844 182.777344 51.820312 C 183.175781 51.550781 183.574219 51.28125 183.972656 50.957031 C 184.351562 50.648438 184.714844 50.328125 185.058594 49.984375 C 186.4375 48.597656 187.46875 46.890625 188.300781 45.089844 C 189.117188 43.292969 189.75 41.367188 190.277344 39.441406 C 190.800781 37.519531 191.21875 35.539062 191.507812 33.558594 C 192.070312 29.601562 192.140625 25.554688 191.652344 21.597656 C 191.164062 17.640625 190.058594 13.734375 188.230469 10.226562 C 186.398438 6.699219 183.738281 3.625 180.460938 1.410156 C 180.152344 1.195312 180.0625 0.78125 180.277344 0.476562 C 180.605469 0.171875 181.039062 0.0820312 181.347656 0.296875 Z M 181.347656 0.296875 " fill-opacity="1" fill-rule="nonzero"/><path fill="#ffc500" d="M 187.503906 68.496094 C 187.613281 76.179688 180.261719 75.421875 179.046875 75.421875 C 179.121094 70.007812 181.945312 67.6875 187.503906 68.496094 Z M 187.503906 68.496094 " fill-opacity="1" fill-rule="nonzero"/><path fill="#ffc500" d="M 181.527344 184.945312 C 185.601562 191.476562 178.902344 194.589844 177.871094 195.21875 C 175.117188 190.523438 176.347656 187.085938 181.527344 184.945312 Z M 181.527344 184.945312 " fill-opacity="1" fill-rule="nonzero"/><path fill="#ffc500" d="M 181.710938 252.460938 C 186.90625 258.148438 180.894531 262.410156 179.988281 263.21875 C 176.4375 259.101562 177.019531 255.503906 181.710938 252.460938 Z M 181.710938 252.460938 " fill-opacity="1" fill-rule="nonzero"/><path fill="#ffc500" d="M 187.6875 334.550781 C 194.605469 337.984375 190.546875 344.121094 189.984375 345.199219 C 185.167969 342.628906 184.40625 339.082031 187.6875 334.550781 Z M 187.6875 334.550781 " fill-opacity="1" fill-rule="nonzero"/><path fill="#ffc500" d="M 173.488281 117.789062 C 177 124.625 170.082031 127.179688 168.996094 127.738281 C 166.640625 122.824219 168.125 119.515625 173.488281 117.789062 Z M 173.488281 117.789062 " fill-opacity="1" fill-rule="nonzero"/><path fill="#ffc500" d="M 184.246094 86.109375 C 177.832031 94.636719 186.691406 99.726562 188.03125 100.734375 C 192.414062 94.582031 191.144531 89.707031 184.246094 86.109375 Z M 184.246094 86.109375 " fill-opacity="1" fill-rule="nonzero"/><path fill="#ffc500" d="M 177.90625 158.984375 C 177.019531 169.601562 187.015625 169.292969 188.664062 169.4375 C 189.082031 161.917969 185.496094 158.429688 177.90625 158.984375 Z M 177.90625 158.984375 " fill-opacity="1" fill-rule="nonzero"/><path fill="#ffc500" d="M 177.363281 226.195312 C 172.742188 235.804688 182.414062 239.09375 183.953125 239.816406 C 187.015625 232.925781 184.824219 228.390625 177.363281 226.195312 Z M 177.363281 226.195312 " fill-opacity="1" fill-rule="nonzero"/><path fill="#ffc500" d="M 193.320312 306.828125 C 182.6875 305.425781 182.542969 315.589844 182.308594 317.261719 C 189.859375 318.035156 193.519531 314.5625 193.320312 306.828125 Z M 193.320312 306.828125 " fill-opacity="1" fill-rule="nonzero"/><path fill="#ffc500" d="M 196.523438 93.664062 C 195.058594 92.046875 192.847656 91.234375 190.53125 91.613281 C 192.523438 90.964844 194.261719 89.347656 195.058594 86.988281 C 196.179688 83.679688 192.324219 80.441406 188.917969 81.539062 C 187.179688 82.097656 185.367188 84.472656 185.167969 86.808594 C 184.898438 84.832031 183.519531 82.582031 181.546875 81.664062 C 178.230469 80.117188 174.574219 83.285156 175.480469 86.792969 C 175.933594 88.484375 177.019531 89.707031 178.214844 90.640625 C 175.933594 90.371094 173.886719 91.234375 172.363281 92.730469 C 169.992188 95.050781 171.800781 99.65625 175.714844 99.90625 C 177.707031 100.03125 179.625 99.492188 181.238281 97.765625 C 180.316406 99.726562 179.519531 101.902344 180.550781 104.242188 C 182.160156 107.894531 186.871094 107.914062 188.5 104.65625 C 189.351562 102.945312 189.136719 101.003906 188.5 99.152344 C 189.785156 100.121094 191.34375 100.984375 193.226562 100.878906 C 196.921875 100.664062 198.84375 96.21875 196.523438 93.664062 Z M 196.523438 93.664062 " fill-opacity="1" fill-rule="nonzero"/><path fill="#5c21b5" d="M 186.742188 90.5625 C 187.074219 90.824219 187.339844 91.136719 187.542969 91.507812 C 187.746094 91.875 187.871094 92.265625 187.917969 92.683594 C 187.964844 93.101562 187.929688 93.511719 187.8125 93.914062 C 187.695312 94.316406 187.503906 94.683594 187.242188 95.011719 C 186.976562 95.339844 186.660156 95.605469 186.289062 95.808594 C 185.917969 96.007812 185.523438 96.132812 185.101562 96.179688 C 184.683594 96.226562 184.269531 96.191406 183.863281 96.074219 C 183.457031 95.957031 183.089844 95.769531 182.761719 95.507812 C 182.429688 95.242188 182.164062 94.929688 181.960938 94.5625 C 181.753906 94.191406 181.628906 93.800781 181.582031 93.382812 C 181.535156 92.964844 181.570312 92.554688 181.691406 92.152344 C 181.808594 91.75 182 91.382812 182.261719 91.054688 C 182.527344 90.726562 182.84375 90.460938 183.214844 90.261719 C 183.582031 90.058594 183.980469 89.933594 184.398438 89.886719 C 184.820312 89.839844 185.234375 89.875 185.636719 89.992188 C 186.042969 90.109375 186.414062 90.296875 186.742188 90.5625 Z M 186.742188 90.5625 " fill-opacity="1" fill-rule="nonzero"/><path fill="#ffc500" d="M 199.003906 360.671875 C 197.539062 359.050781 195.328125 358.242188 193.011719 358.621094 C 195.003906 357.972656 196.742188 356.355469 197.539062 353.996094 C 198.660156 350.6875 194.804688 347.449219 191.398438 348.546875 C 189.660156 349.105469 187.847656 351.480469 187.648438 353.816406 C 187.378906 351.839844 186 349.589844 184.027344 348.671875 C 180.714844 347.125 177.054688 350.292969 177.960938 353.800781 C 178.414062 355.492188 179.5 356.714844 180.695312 357.648438 C 178.414062 357.378906 176.367188 358.242188 174.84375 359.734375 C 172.472656 362.058594 174.285156 366.664062 178.195312 366.914062 C 180.1875 367.039062 182.109375 366.5 183.71875 364.773438 C 182.796875 366.734375 182 368.910156 183.03125 371.25 C 184.644531 374.902344 189.351562 374.917969 190.980469 371.664062 C 191.832031 369.953125 191.617188 368.011719 190.980469 366.160156 C 192.269531 367.128906 193.824219 367.992188 195.710938 367.886719 C 199.402344 367.667969 201.324219 363.242188 199.003906 360.671875 Z M 199.003906 360.671875 " fill-opacity="1" fill-rule="nonzero"/><path fill="#5c21b5" d="M 189.21875 357.574219 C 189.550781 357.835938 189.816406 358.152344 190.019531 358.519531 C 190.226562 358.886719 190.351562 359.28125 190.398438 359.699219 C 190.445312 360.113281 190.40625 360.523438 190.289062 360.929688 C 190.171875 361.332031 189.980469 361.695312 189.71875 362.023438 C 189.453125 362.351562 189.136719 362.617188 188.765625 362.820312 C 188.394531 363.023438 188 363.148438 187.582031 363.195312 C 187.160156 363.242188 186.746094 363.203125 186.339844 363.089844 C 185.9375 362.972656 185.566406 362.78125 185.238281 362.519531 C 184.90625 362.257812 184.640625 361.941406 184.4375 361.574219 C 184.234375 361.207031 184.105469 360.8125 184.0625 360.398438 C 184.015625 359.980469 184.050781 359.570312 184.167969 359.164062 C 184.285156 358.761719 184.476562 358.398438 184.738281 358.070312 C 185.003906 357.742188 185.320312 357.476562 185.691406 357.273438 C 186.0625 357.070312 186.457031 356.945312 186.875 356.898438 C 187.296875 356.855469 187.710938 356.890625 188.117188 357.007812 C 188.523438 357.121094 188.890625 357.3125 189.21875 357.574219 Z M 189.21875 357.574219 " fill-opacity="1" fill-rule="nonzero"/><path fill="#ffc500" d="M 189.261719 188.5625 C 188.191406 187.375 186.5625 186.78125 184.859375 187.050781 C 186.328125 186.566406 187.613281 185.378906 188.191406 183.648438 C 189.007812 181.222656 186.183594 178.847656 183.683594 179.636719 C 182.398438 180.050781 181.074219 181.796875 180.929688 183.507812 C 180.730469 182.050781 179.71875 180.410156 178.269531 179.726562 C 175.824219 178.59375 173.140625 180.914062 173.8125 183.507812 C 174.140625 184.746094 174.9375 185.648438 175.824219 186.332031 C 174.140625 186.132812 172.636719 186.761719 171.511719 187.859375 C 169.773438 189.570312 171.097656 192.949219 173.976562 193.128906 C 175.441406 193.222656 176.855469 192.824219 178.03125 191.546875 C 177.34375 192.988281 176.765625 194.589844 177.527344 196.316406 C 178.703125 198.996094 182.179688 199.011719 183.375 196.621094 C 184.007812 195.363281 183.828125 193.941406 183.375 192.574219 C 184.316406 193.292969 185.457031 193.921875 186.851562 193.851562 C 189.550781 193.707031 190.964844 190.449219 189.261719 188.5625 Z M 189.261719 188.5625 " fill-opacity="1" fill-rule="nonzero"/><path fill="#5c21b5" d="M 182.066406 186.300781 C 182.308594 186.496094 182.503906 186.726562 182.652344 186.996094 C 182.804688 187.265625 182.894531 187.550781 182.929688 187.859375 C 182.964844 188.164062 182.9375 188.464844 182.851562 188.761719 C 182.765625 189.054688 182.625 189.324219 182.429688 189.5625 C 182.238281 189.804688 182.003906 190 181.734375 190.148438 C 181.460938 190.296875 181.171875 190.386719 180.863281 190.421875 C 180.558594 190.453125 180.253906 190.429688 179.957031 190.34375 C 179.660156 190.257812 179.390625 190.117188 179.148438 189.925781 C 178.90625 189.734375 178.710938 189.503906 178.558594 189.234375 C 178.410156 188.964844 178.320312 188.675781 178.285156 188.371094 C 178.25 188.066406 178.277344 187.765625 178.363281 187.46875 C 178.449219 187.171875 178.589844 186.90625 178.78125 186.664062 C 178.976562 186.425781 179.207031 186.230469 179.480469 186.082031 C 179.75 185.933594 180.039062 185.839844 180.347656 185.808594 C 180.65625 185.773438 180.960938 185.800781 181.257812 185.886719 C 181.554688 185.972656 181.824219 186.109375 182.066406 186.300781 Z M 182.066406 186.300781 " fill-opacity="1" fill-rule="nonzero"/><path fill="#ffc500" d="M 202.738281 277.753906 C 202.589844 275.578125 201.339844 273.601562 199.277344 272.484375 C 201.25 273.1875 203.625 272.96875 205.707031 271.601562 C 208.640625 269.679688 207.609375 264.765625 204.238281 263.542969 C 202.519531 262.914062 199.621094 263.6875 198.027344 265.398438 C 199.042969 263.667969 199.347656 261.0625 198.351562 259.136719 C 196.6875 255.878906 191.851562 256.132812 190.402344 259.476562 C 189.695312 261.078125 189.804688 262.714844 190.167969 264.191406 C 188.539062 262.570312 186.398438 262.015625 184.261719 262.25 C 180.949219 262.625 179.535156 267.359375 182.453125 269.949219 C 183.9375 271.261719 185.800781 272.015625 188.140625 271.621094 C 186.199219 272.59375 184.226562 273.832031 183.59375 276.316406 C 182.597656 280.183594 186.308594 283.082031 189.605469 281.496094 C 191.34375 280.671875 192.359375 278.996094 193.027344 277.160156 C 193.425781 278.710938 194.132812 280.347656 195.671875 281.40625 C 198.734375 283.511719 202.972656 281.191406 202.738281 277.753906 Z M 202.738281 277.753906 " fill-opacity="1" fill-rule="nonzero"/><path fill="#5c21b5" d="M 196.933594 269.328125 C 197.03125 269.734375 197.046875 270.148438 196.980469 270.5625 C 196.914062 270.976562 196.769531 271.363281 196.546875 271.71875 C 196.324219 272.078125 196.042969 272.378906 195.699219 272.625 C 195.359375 272.871094 194.980469 273.042969 194.570312 273.140625 C 194.160156 273.238281 193.742188 273.253906 193.328125 273.1875 C 192.910156 273.121094 192.519531 272.976562 192.160156 272.753906 C 191.800781 272.535156 191.496094 272.253906 191.25 271.914062 C 191 271.574219 190.828125 271.199219 190.730469 270.792969 C 190.632812 270.382812 190.617188 269.972656 190.683594 269.558594 C 190.753906 269.144531 190.898438 268.757812 191.117188 268.398438 C 191.339844 268.042969 191.621094 267.738281 191.964844 267.492188 C 192.308594 267.25 192.683594 267.078125 193.09375 266.980469 C 193.507812 266.882812 193.921875 266.867188 194.339844 266.933594 C 194.753906 267 195.144531 267.144531 195.503906 267.363281 C 195.863281 267.585938 196.167969 267.863281 196.414062 268.203125 C 196.664062 268.546875 196.835938 268.917969 196.933594 269.328125 Z M 196.933594 269.328125 " fill-opacity="1" fill-rule="nonzero"/></svg>