<?xml version="1.0" encoding="utf-8"?>
<!-- Generator: Adobe Illustrator 27.0.0, SVG Export Plug-In . SVG Version: 6.00 Build 0)  -->
<svg version="1.1" id="Layer_1" xmlns="http://www.w3.org/2000/svg" xmlns:xlink="http://www.w3.org/1999/xlink" x="0px" y="0px"
	 viewBox="0 0 286.2 286.2" style="enable-background:new 0 0 286.2 286.2;" xml:space="preserve">
<style type="text/css">
	.st0{fill:#D42487;}
</style>
<g>
	<g>
		<g>
			<path class="st0" d="M244.6,227.8v-18.5l-32.3-14.4v-5.7h-9.2V180h9.2v-9.2H202c-2.3-7.6-9.8-24.7-31.3-33.9v-30.7h9.2v-9.2
				h-19.4l-7.2-32.3h3.5V36.9h-9.2v-9.2h4.6v-9.2h-4.6v-4.6h-9.2v4.6h-4.6v9.2h4.6v9.2h-9.2v27.7h3.5l-7.2,32.3h-19.4v9.2h9.2v30.7
				c-21.5,9.2-28.9,26.2-31.3,33.9H73.8v9.2h9.3l0,9.2h-9.2v5.7l-32.3,14.4v18.5L0,246.2v26.1h64.6h156.9h64.6v-26.1L244.6,227.8z
				 M183.4,235.4l16.2,9.2H86.6l16.2-9.2H183.4z M106.2,226.2v-9.2H180v9.2H106.2z M189.2,226.2v-9.2h46.2v9.2H189.2z M138.5,46.2
				h9.2v9.2h-9.2V46.2z M141.1,69.2h3.9l6.2,27.7H135L141.1,69.2z M124.6,106.2h36.9V134l-36.9-0.2
				C124.6,133.8,124.6,106.2,124.6,106.2z M125.3,143.1h35.6c20.4,6.1,28.4,20,31.4,27.7h-30.8h-36.9H93.9
				C96.8,163,104.9,149.1,125.3,143.1z M193.8,180v9.2h-32.3V180H193.8z M152.3,180v9.2h-18.5V180H152.3z M92.3,180h32.3v9.2H92.3
				V180z M88.7,198.5h35.9h36.9h35.9l20.8,9.2h-29H96.9h-29L88.7,198.5z M50.8,216.9h46.2v9.2H50.8V216.9z M64.6,263.1H9.2v-9.2
				h55.4V263.1z M64.6,244.6H26.4l20.8-9.2h37L68,244.6H64.6z M212.3,263.1H73.8v-9.2h138.5L212.3,263.1L212.3,263.1z M218.1,244.6
				l-16.2-9.2h37l20.8,9.2h-38.3H218.1z M276.9,263.1h-55.4v-9.2h55.4V263.1z"/>
			<polygon class="st0" points="133.8,124.6 138.5,124.6 138.5,133.8 147.7,133.8 147.7,124.6 152.3,124.6 152.3,115.4 133.8,115.4 
							"/>
			<rect x="115.4" y="152.3" class="st0" width="9.2" height="9.2"/>
			<rect x="133.8" y="152.3" class="st0" width="9.2" height="9.2"/>
		</g>
	</g>
</g>
</svg>
