<?xml version="1.0" encoding="utf-8"?>
<!-- Generator: Adobe Illustrator 27.0.0, SVG Export Plug-In . SVG Version: 6.00 Build 0)  -->
<svg version="1.1" id="Layer_1" xmlns="http://www.w3.org/2000/svg" xmlns:xlink="http://www.w3.org/1999/xlink" x="0px" y="0px"
	 viewBox="0 0 512 512" style="enable-background:new 0 0 512 512;" xml:space="preserve">
<style type="text/css">
	.st0{fill:#FFD02E;}
</style>
<g>
	<g>
		<path class="st0" d="M471.1,430.3H40.8c-4.5,0-8.2,3.7-8.2,8.2s3.7,8.2,8.2,8.2h430.2c4.5,0,8.2-3.7,8.2-8.2
			S475.6,430.3,471.1,430.3z"/>
	</g>
</g>
<g>
	<g>
		<path class="st0" d="M512,176.9c0-4.5-3.7-8.2-8.2-8.2c-4.5,0-8.2,3.7-8.2,8.2l0,24.5h-16.3v-24.5c0-31.3-19.9-58.4-49-68.2V82.2
			c0-4.5-3.7-8.2-8.2-8.2c-4.5,0-8.2,3.7-8.2,8.2v26.5c-29.2,9.7-49,36.9-49,68.2v24.5h-16.4v-53.7c0-26.7-9.2-52.9-25.9-73.7
			c-15-18.8-35.7-32.6-58.6-39.4V8.2c0-4.5-3.7-8.2-8.2-8.2c-4.5,0-8.2,3.7-8.2,8.2v26.4c-22.9,6.8-43.5,20.6-58.6,39.4
			c-16.7,20.8-25.9,47-25.9,73.7v53.7H147v-24.5c0-31.3-19.9-58.4-49-68.2V82.2c0-4.5-3.7-8.2-8.2-8.2c-4.5,0-8.2,3.7-8.2,8.2v26.5
			c-29.2,9.7-49,36.9-49,68.2v24.5H16.3v-24.5c0-4.5-3.7-8.2-8.2-8.2c-4.5,0-8.2,3.7-8.2,8.2v326.9c0,4.5,3.7,8.2,8.2,8.2h495.6
			c4.5,0,8.2-3.7,8.2-8.2l0.1-294.1c0,0,0-0.1,0-0.1c0,0,0-0.1,0-0.1L512,176.9z M422.1,123.3c21.5,5.9,37.1,23.7,40.2,45.4h-80.5
			C385.1,147.1,400.6,129.2,422.1,123.3z M381.3,185.1H463v16.3h-81.7V185.1z M256,49.3c42.3,10.8,72.5,47.1,75.9,90.2H180.1
			C183.5,96.4,213.7,60.1,256,49.3z M179.8,155.8h152.5v241.8h-16.3v-122c0-33-26.9-59.9-59.9-59.9s-59.9,26.9-59.9,59.9v97.5
			c0,4.5,3.7,8.2,8.2,8.2c4.5,0,8.2-3.7,8.2-8.2V323h87.1v74.6H179.8V155.8z M299.6,275.6v31h-87.1v-31c0-24,19.5-43.6,43.6-43.6
			S299.6,251.6,299.6,275.6z M89.9,123.3c21.5,5.9,37.1,23.7,40.2,45.4H49.6C52.8,147.1,68.4,129.2,89.9,123.3z M49,185.1h81.7v16.3
			H49V185.1z M16.3,217.7h147.1v49.7H16.3V217.7z M16.3,283.8h147.1v113.8H147l0-40.3c0-31.5-25.7-57.2-57.2-57.2
			s-57.2,25.7-57.2,57.2c0,0,0,0.1,0,0.1l0.6,40.1h-17V283.8z M49,357.3c0-22.5,18.3-40.8,40.8-40.8c22.5,0,40.8,18.3,40.8,40.9
			l0,40.3H49.6v0L49,357.3z M495.6,495.6H16.3v-81.7h479.3L495.6,495.6z M381.3,397.6l0-40.3c0-22.5,18.3-40.8,40.8-40.8
			c22.5,0,40.8,18.3,40.8,40.8l-0.6,40.3H381.3z M495.6,397.6h-16.9l0.6-40.1c0,0,0-0.1,0-0.1c0-31.5-25.7-57.2-57.2-57.2
			S365,325.8,365,357.3l0,40.3h-16.4V283.8h147.1L495.6,397.6z M495.6,267.5H348.6v-49.7h147.1L495.6,267.5z"/>
	</g>
</g>
</svg>
