<svg xmlns="http://www.w3.org/2000/svg" xmlns:xlink="http://www.w3.org/1999/xlink" width="500" zoomAndPan="magnify" viewBox="0 0 375 374.999991" height="500" preserveAspectRatio="xMidYMid meet" version="1.0"><defs><clipPath id="84548c5e5e"><path d="M 187.28125 309 L 198.972656 309 L 198.972656 374.746094 L 187.28125 374.746094 Z M 187.28125 309 " clip-rule="nonzero"/></clipPath><clipPath id="16bb869fc5"><path d="M 187.28125 247.355469 L 198.972656 247.355469 L 198.972656 313 L 187.28125 313 Z M 187.28125 247.355469 " clip-rule="nonzero"/></clipPath><clipPath id="2f9a567efa"><path d="M 187.28125 185.453125 L 198.972656 185.453125 L 198.972656 251.449219 L 187.28125 251.449219 Z M 187.28125 185.453125 " clip-rule="nonzero"/></clipPath><clipPath id="7b0942d8de"><path d="M 187.28125 123.550781 L 198.972656 123.550781 L 198.972656 189.546875 L 187.28125 189.546875 Z M 187.28125 123.550781 " clip-rule="nonzero"/></clipPath><clipPath id="77e703edaa"><path d="M 187.28125 62 L 198.972656 62 L 198.972656 127.644531 L 187.28125 127.644531 Z M 187.28125 62 " clip-rule="nonzero"/></clipPath><clipPath id="1f4fc55308"><path d="M 187.28125 0.253906 L 198.972656 0.253906 L 198.972656 66 L 187.28125 66 Z M 187.28125 0.253906 " clip-rule="nonzero"/></clipPath></defs><path fill="#ffc500" d="M 187.324219 326.542969 C 187.324219 332.695312 184.9375 338.386719 180.96875 341.992188 C 184.9375 345.59375 187.324219 351.289062 187.324219 357.441406 C 187.324219 364.574219 184.117188 371.089844 178.949219 374.449219 C 178.097656 375.003906 176.957031 374.757812 176.40625 373.894531 C 175.859375 373.035156 176.105469 371.886719 176.957031 371.332031 C 181.085938 368.652344 183.648438 363.328125 183.648438 357.441406 C 183.648438 351.554688 181.085938 346.234375 176.957031 343.550781 C 176.433594 343.207031 176.113281 342.621094 176.113281 341.992188 C 176.113281 341.363281 176.433594 340.773438 176.957031 340.433594 C 181.085938 337.75 183.648438 332.429688 183.648438 326.542969 C 183.648438 320.65625 181.085938 315.332031 176.957031 312.652344 C 176.105469 312.097656 175.859375 310.949219 176.40625 310.089844 C 176.957031 309.226562 178.097656 308.980469 178.949219 309.535156 C 184.117188 312.894531 187.324219 319.410156 187.324219 326.542969 " fill-opacity="1" fill-rule="nonzero"/><path fill="#ffc500" d="M 187.324219 264.746094 C 187.324219 270.898438 184.9375 276.589844 180.96875 280.195312 C 184.9375 283.800781 187.324219 289.492188 187.324219 295.644531 C 187.324219 302.777344 184.117188 309.292969 178.949219 312.652344 C 178.097656 313.207031 176.957031 312.957031 176.40625 312.097656 C 175.859375 311.234375 176.105469 310.089844 176.957031 309.535156 C 181.085938 306.855469 183.648438 301.53125 183.648438 295.644531 C 183.648438 289.757812 181.085938 284.433594 176.957031 281.753906 C 176.433594 281.410156 176.113281 280.824219 176.113281 280.195312 C 176.113281 279.566406 176.433594 278.980469 176.957031 278.636719 C 181.085938 275.953125 183.648438 270.632812 183.648438 264.746094 C 183.648438 258.859375 181.085938 253.535156 176.957031 250.855469 C 176.105469 250.300781 175.859375 249.152344 176.40625 248.292969 C 176.957031 247.429688 178.097656 247.183594 178.949219 247.738281 C 184.117188 251.097656 187.324219 257.613281 187.324219 264.746094 " fill-opacity="1" fill-rule="nonzero"/><path fill="#ffc500" d="M 187.324219 202.949219 C 187.324219 209.101562 184.9375 214.792969 180.96875 218.398438 C 184.9375 222.003906 187.324219 227.695312 187.324219 233.847656 C 187.324219 240.980469 184.117188 247.496094 178.949219 250.855469 C 178.097656 251.410156 176.957031 251.160156 176.40625 250.300781 C 175.859375 249.441406 176.105469 248.292969 176.957031 247.738281 C 181.085938 245.054688 183.648438 239.734375 183.648438 233.847656 C 183.648438 227.960938 181.085938 222.636719 176.957031 219.957031 C 176.433594 219.613281 176.113281 219.027344 176.113281 218.398438 C 176.113281 217.769531 176.433594 217.183594 176.957031 216.839844 C 181.085938 214.15625 183.648438 208.835938 183.648438 202.949219 C 183.648438 197.0625 181.085938 191.738281 176.957031 189.058594 C 176.105469 188.503906 175.859375 187.355469 176.40625 186.496094 C 176.957031 185.636719 178.097656 185.386719 178.949219 185.941406 C 184.117188 189.300781 187.324219 195.816406 187.324219 202.949219 " fill-opacity="1" fill-rule="nonzero"/><path fill="#ffc500" d="M 187.324219 141.152344 C 187.324219 147.304688 184.9375 152.996094 180.96875 156.601562 C 184.9375 160.207031 187.324219 165.898438 187.324219 172.050781 C 187.324219 179.183594 184.117188 185.699219 178.949219 189.058594 C 178.097656 189.613281 176.957031 189.363281 176.40625 188.503906 C 175.859375 187.644531 176.105469 186.496094 176.957031 185.941406 C 181.085938 183.261719 183.648438 177.941406 183.648438 172.050781 C 183.648438 166.164062 181.085938 160.839844 176.957031 158.15625 C 176.433594 157.820312 176.113281 157.230469 176.113281 156.601562 C 176.113281 155.972656 176.433594 155.386719 176.957031 155.046875 C 181.085938 152.363281 183.648438 147.039062 183.648438 141.152344 C 183.648438 135.265625 181.085938 129.941406 176.957031 127.261719 C 176.105469 126.707031 175.859375 125.558594 176.40625 124.699219 C 176.957031 123.839844 178.097656 123.589844 178.949219 124.144531 C 184.117188 127.503906 187.324219 134.019531 187.324219 141.152344 " fill-opacity="1" fill-rule="nonzero"/><path fill="#ffc500" d="M 187.324219 79.355469 C 187.324219 85.507812 184.9375 91.203125 180.96875 94.804688 C 184.9375 98.410156 187.324219 104.101562 187.324219 110.253906 C 187.324219 117.386719 184.117188 123.902344 178.949219 127.261719 C 178.097656 127.816406 176.957031 127.570312 176.40625 126.710938 C 175.859375 125.847656 176.105469 124.699219 176.957031 124.144531 C 181.085938 121.464844 183.648438 116.140625 183.648438 110.253906 C 183.648438 104.371094 181.085938 99.046875 176.957031 96.363281 C 176.433594 96.023438 176.113281 95.4375 176.113281 94.804688 C 176.113281 94.175781 176.433594 93.589844 176.957031 93.25 C 181.085938 90.566406 183.648438 85.242188 183.648438 79.355469 C 183.648438 73.46875 181.085938 68.144531 176.957031 65.464844 C 176.105469 64.910156 175.859375 63.765625 176.40625 62.902344 C 176.957031 62.042969 178.097656 61.792969 178.949219 62.347656 C 184.117188 65.707031 187.324219 72.222656 187.324219 79.355469 " fill-opacity="1" fill-rule="nonzero"/><path fill="#ffc500" d="M 187.324219 17.558594 C 187.324219 23.710938 184.9375 29.40625 180.96875 33.007812 C 184.9375 36.613281 187.324219 42.304688 187.324219 48.457031 C 187.324219 55.589844 184.117188 62.105469 178.949219 65.464844 C 178.097656 66.019531 176.957031 65.773438 176.40625 64.914062 C 175.859375 64.050781 176.105469 62.902344 176.957031 62.347656 C 181.085938 59.664062 183.648438 54.34375 183.648438 48.457031 C 183.648438 42.574219 181.085938 37.25 176.957031 34.566406 C 176.433594 34.226562 176.113281 33.640625 176.113281 33.007812 C 176.113281 32.375 176.433594 31.789062 176.957031 31.453125 C 181.085938 28.765625 183.648438 23.445312 183.648438 17.558594 C 183.648438 11.675781 181.085938 6.351562 176.957031 3.667969 C 176.105469 3.113281 175.859375 1.964844 176.40625 1.105469 C 176.957031 0.242188 178.097656 -0.00390625 178.949219 0.554688 C 184.117188 3.910156 187.324219 10.425781 187.324219 17.558594 " fill-opacity="1" fill-rule="nonzero"/><g clip-path="url(#84548c5e5e)"><path fill="#ffc500" d="M 198.972656 326.542969 C 198.972656 332.695312 196.585938 338.386719 192.613281 341.992188 C 196.585938 345.59375 198.972656 351.289062 198.972656 357.441406 C 198.972656 364.574219 195.765625 371.089844 190.597656 374.449219 C 189.742188 375.003906 188.609375 374.757812 188.054688 373.894531 C 187.507812 373.035156 187.75 371.886719 188.605469 371.332031 C 192.730469 368.652344 195.292969 363.328125 195.292969 357.441406 C 195.292969 351.554688 192.730469 346.234375 188.605469 343.550781 C 188.082031 343.207031 187.761719 342.621094 187.761719 341.992188 C 187.761719 341.363281 188.082031 340.773438 188.605469 340.433594 C 192.730469 337.75 195.292969 332.429688 195.292969 326.542969 C 195.292969 320.65625 192.730469 315.332031 188.605469 312.652344 C 187.75 312.097656 187.507812 310.949219 188.054688 310.089844 C 188.609375 309.226562 189.742188 308.980469 190.597656 309.535156 C 195.765625 312.894531 198.972656 319.410156 198.972656 326.542969 " fill-opacity="1" fill-rule="nonzero"/></g><g clip-path="url(#16bb869fc5)"><path fill="#ffc500" d="M 198.972656 264.746094 C 198.972656 270.898438 196.585938 276.589844 192.613281 280.195312 C 196.585938 283.800781 198.972656 289.492188 198.972656 295.644531 C 198.972656 302.777344 195.765625 309.292969 190.597656 312.652344 C 189.742188 313.207031 188.609375 312.957031 188.054688 312.097656 C 187.507812 311.234375 187.75 310.089844 188.605469 309.535156 C 192.730469 306.855469 195.292969 301.53125 195.292969 295.644531 C 195.292969 289.757812 192.730469 284.433594 188.605469 281.753906 C 188.082031 281.410156 187.761719 280.824219 187.761719 280.195312 C 187.761719 279.566406 188.082031 278.980469 188.605469 278.636719 C 192.730469 275.953125 195.292969 270.632812 195.292969 264.746094 C 195.292969 258.859375 192.730469 253.535156 188.605469 250.855469 C 187.75 250.300781 187.507812 249.152344 188.054688 248.292969 C 188.609375 247.429688 189.742188 247.183594 190.597656 247.738281 C 195.765625 251.097656 198.972656 257.613281 198.972656 264.746094 " fill-opacity="1" fill-rule="nonzero"/></g><g clip-path="url(#2f9a567efa)"><path fill="#ffc500" d="M 198.972656 202.949219 C 198.972656 209.101562 196.585938 214.792969 192.613281 218.398438 C 196.585938 222.003906 198.972656 227.695312 198.972656 233.847656 C 198.972656 240.980469 195.765625 247.496094 190.597656 250.855469 C 189.742188 251.410156 188.609375 251.160156 188.054688 250.300781 C 187.507812 249.441406 187.75 248.292969 188.605469 247.738281 C 192.730469 245.054688 195.292969 239.734375 195.292969 233.847656 C 195.292969 227.960938 192.730469 222.636719 188.605469 219.957031 C 188.082031 219.613281 187.761719 219.027344 187.761719 218.398438 C 187.761719 217.769531 188.082031 217.183594 188.605469 216.839844 C 192.730469 214.15625 195.292969 208.835938 195.292969 202.949219 C 195.292969 197.0625 192.730469 191.738281 188.605469 189.058594 C 187.75 188.503906 187.507812 187.355469 188.054688 186.496094 C 188.609375 185.636719 189.742188 185.386719 190.597656 185.941406 C 195.765625 189.300781 198.972656 195.816406 198.972656 202.949219 " fill-opacity="1" fill-rule="nonzero"/></g><g clip-path="url(#7b0942d8de)"><path fill="#ffc500" d="M 198.972656 141.152344 C 198.972656 147.304688 196.585938 152.996094 192.613281 156.601562 C 196.585938 160.207031 198.972656 165.898438 198.972656 172.050781 C 198.972656 179.183594 195.765625 185.699219 190.597656 189.058594 C 189.742188 189.613281 188.609375 189.363281 188.054688 188.503906 C 187.507812 187.644531 187.75 186.496094 188.605469 185.941406 C 192.730469 183.261719 195.292969 177.941406 195.292969 172.050781 C 195.292969 166.164062 192.730469 160.839844 188.605469 158.15625 C 188.082031 157.820312 187.761719 157.230469 187.761719 156.601562 C 187.761719 155.972656 188.082031 155.386719 188.605469 155.046875 C 192.730469 152.363281 195.292969 147.039062 195.292969 141.152344 C 195.292969 135.265625 192.730469 129.941406 188.605469 127.261719 C 187.75 126.707031 187.507812 125.558594 188.054688 124.699219 C 188.609375 123.839844 189.742188 123.589844 190.597656 124.144531 C 195.765625 127.503906 198.972656 134.019531 198.972656 141.152344 " fill-opacity="1" fill-rule="nonzero"/></g><g clip-path="url(#77e703edaa)"><path fill="#ffc500" d="M 198.972656 79.355469 C 198.972656 85.507812 196.585938 91.203125 192.613281 94.804688 C 196.585938 98.410156 198.972656 104.101562 198.972656 110.253906 C 198.972656 117.386719 195.765625 123.902344 190.597656 127.261719 C 189.742188 127.816406 188.609375 127.570312 188.054688 126.710938 C 187.507812 125.847656 187.75 124.699219 188.605469 124.144531 C 192.730469 121.464844 195.292969 116.140625 195.292969 110.253906 C 195.292969 104.371094 192.730469 99.046875 188.605469 96.363281 C 188.082031 96.023438 187.761719 95.4375 187.761719 94.804688 C 187.761719 94.175781 188.082031 93.589844 188.605469 93.25 C 192.730469 90.566406 195.292969 85.242188 195.292969 79.355469 C 195.292969 73.46875 192.730469 68.144531 188.605469 65.464844 C 187.75 64.910156 187.507812 63.765625 188.054688 62.902344 C 188.609375 62.042969 189.742188 61.792969 190.597656 62.347656 C 195.765625 65.707031 198.972656 72.222656 198.972656 79.355469 " fill-opacity="1" fill-rule="nonzero"/></g><g clip-path="url(#1f4fc55308)"><path fill="#ffc500" d="M 198.972656 17.558594 C 198.972656 23.710938 196.585938 29.40625 192.613281 33.007812 C 196.585938 36.613281 198.972656 42.304688 198.972656 48.457031 C 198.972656 55.589844 195.765625 62.105469 190.597656 65.464844 C 189.742188 66.019531 188.609375 65.773438 188.054688 64.914062 C 187.507812 64.050781 187.75 62.902344 188.605469 62.347656 C 192.730469 59.664062 195.292969 54.34375 195.292969 48.457031 C 195.292969 42.574219 192.730469 37.25 188.605469 34.566406 C 188.082031 34.226562 187.761719 33.640625 187.761719 33.007812 C 187.761719 32.375 188.082031 31.789062 188.605469 31.453125 C 192.730469 28.765625 195.292969 23.445312 195.292969 17.558594 C 195.292969 11.675781 192.730469 6.351562 188.605469 3.667969 C 187.75 3.113281 187.507812 1.964844 188.054688 1.105469 C 188.609375 0.242188 189.742188 -0.00390625 190.597656 0.554688 C 195.765625 3.910156 198.972656 10.425781 198.972656 17.558594 " fill-opacity="1" fill-rule="nonzero"/></g></svg>